<?xml version="1.0" encoding="UTF-8"?>
<svg id="Ebene_1" data-name="Ebene 1" xmlns="http://www.w3.org/2000/svg" viewBox="0 0 500 500">
  <defs>
    <style>
      .cls-1 {
        fill: #9f9a90;
      }

      .cls-1, .cls-2, .cls-3 {
        stroke-width: 0px;
      }

      .cls-2 {
        fill: #fdfdfd;
      }

      .cls-3 {
        fill: #020202;
      }
    </style>
  </defs>
  <path class="cls-3" d="m210.9,68.92c8.44-.43,16.7-2.26,25.09-3.17,9.18-1,18.1-.78,27.07,1.11,16.42,3.46,33.08,6.05,48.49,13.18,7.63,3.53,15.19,7.22,22.77,10.86,2.45,1.18,4.51,1.31,7.4.28,8.59-3.07,16.33-8.78,26.13-8.43,3.3.12,5.48.71,7.48,3.49,2.73,3.8,5.32,7.51,6.16,12.25.3,1.7,1,3.75-.82,4.38-1.39.48-2.27-1.47-2.76-2.91-1.1-3.18-3.41-5.67-4.95-8.56-1.71-3.21-3.22-3.52-6.42-1.86-19.4,10.07-37.06,21.99-47.51,42.16-1.25,2.41-3.08,4.66-5.07,6.53-2.12,1.99-3.25,4.28-3.87,6.98-2.03-.62-4.49-1.32-6.05-.12-2.66,2.04-5.05,2.48-8.24,1.55-2.67-.78-6.43.63-6.09-4.39.07-1.04-.87-.75-1.71-.15-1.72,1.23-1.11-.59-1.39-1.25.38-2.19,4.02-3.5,2.48-5.85-2.43-3.72.51-5.46,1.99-7.85,5.15-.78,5.38-5.44,8.08-9.32-4.94.98-6.08,4.55-8.18,7.1-2.27-.16-4.39.94-6.84.17-2.46-.78-.61-3.37-2.87-4.46-4.47-2.15-13.96-1.84-18.11,1.08-1.64,1.15-4.3,4.78-5.45-.65-1.59.58-2.48-1.22-4.14-1.06-5.39.53-10.76,3.19-16.27.06-1.14-.65-2.91.16-4.14,1.15-3.9.25-2.54,2.63-2.75,5.2-.7,8.27.63,16.06,3.43,23.76.73,2.01,2.06,4.82,1.26,6.2-2.9,5,.55,8.84,1.55,13.1,1.43,6.12,1.12,12.15-.3,19.52-2.41-5.95-4.74-10.52-9.29-13.2-2.48-1.46-2.99-3.05-2.3-5.69,1.17-4.46,1.03-9.64-1.96-12.61-3.42-3.39-4.45-7.07-5.4-11.23-.38-1.67-.27-4.31-2.18-4.4-1.6-.07-3.94.45-4.98,2.63-2.6,5.42-6.5,3.6-9.94,1.29-1.86-1.25-3.29-1.96-5.26-.75-.58-1.06-1.72-1.42-2.32-2.76-4.37-9.74-10.52-18.38-17.27-26.61-2.11-2.58-4.58-4.71-8.83-5.96,6.26,9.92,13.94,18.12,17.35,28.85-6.56-8.23-14.69-15.16-20.72-23.49-6.14-8.49-13.77-14.69-21.78-20.81-3.45-2.64-7.21-4.75-11.88-4.2-1.81.21-3.35-.29-3.6-2.47-.27-2.31,1.95-1.68,2.68-2.37,5.08-4.74,9.01-.88,12.78,1.48,4.71,2.96,8.43,2.9,13.04-.52,18.31-13.56,38.93-21.85,61.27-26.16,8.69-1.68,17.34-2.49,26.17-1.41-4.05.54-8.19.41-12.19,1.39-1.58.39-3.46.2-2.17,2.84.91,1.86-.89,1.12-1.54,1.26-4.99,1.04-10,2.01-15,3.01-3.36-.45-6.1,1.04-10.21,2.7,4.53,1.51,7.23-.39,10.08-.87Z"/>
  <path class="cls-3" d="m395.91,265.06c-12.08-3.31-10.84-14.01-13.05-23-1.89-7.68.18-15.62-2.54-23.39-1.1-3.13-.78-7.79-.03-11.72.39-2.01.5-3.95-.62-5.78-1.31-2.67-.17-6.02-2.35-8.84-.72,3.27-1.48,6.14.25,8.94-.08.92-.17,1.84-.25,2.77-.84.32-1.4.88-1.55,1.8-3.48-1.18-6.72-2.5-8.58-6.17-.84-1.64-.22-5.94-4.49-3.7-2.4.39-4.38-.92-3.96-3.01.98-4.92-1.95-9.17-1.68-13.87q5.98-.33,7.31-9.5c-.82-2.08-5.16,1.22-4.25-2.99.7-3.24,2.39-5.96,6.05-6.63,1.21-.22,1.7.38,1.71,1.69.01,1.16-.9,3.04.97,3.31,1.6.23,1.47-1.88,2.29-2.83,2.47-2.87,4.35-6.43,8.9-6.46.76,0,1.23-1.01.91-1.41-2.41-3.07.9-5.17,1.33-7.72.44-2.63.2-7.05,5.11-2.2,3.5,3.46,2.31-2.38,3.89-3.28l.04.09c-.02,2.99,3.83,3.23,4.21,5.93-1.1.14-2.46-1.04-3.22-.02-1.03,1.37.71,2.19,1.25,3.27,2.16,4.32,3.52-1.99,5.45-.39.55.05.87-.2.73-.74-.04-.15-.46-.21-.71-.32l.17.04c-.33-.87-.65-1.74-1.09-2.92,4.06.34,6.47,3.31,8.07,5.96,2.94,4.89,6.88,8.93,10.2,13.47,13.49,18.49,19.69,39.61,22.53,61.86,2.15,16.81.33,33.48-1.08,50.39-1.69,20.23-9.78,38.06-14.98,56.95-2.4,8.72-8.42,15.69-13.15,23.22-6.82,10.83-14.72,20.9-24.02,29.75-16.95,16.14-36.7,27.92-57.99,37.42-5.19,2.32-8.92-.12-12.95-2.22-1.8-.94-.97-2.61-.11-3.84,1.46-2.09,3.49-3.41,5.86-4.41,30.96-13.17,54.3-35.24,73-62.69.84-1.23,1.67-2.47,2.46-3.73,2.74-4.34,6.77-8.37,2.28-14.06-.66-.84-1.74-3.35-.27-4.56,1.62-1.33,2.29,1.22,3.56,1.76,1.62.69,3.6,1.59,4.5.24,1.05-1.59-.72-2.84-2.21-3.79-2.76-1.76-5.19-4.18-8.14-5.44-5.33-2.28-4.2-6.12-3.5-10.21,1.74.47,1.58,1.79,1.83,2.88-1.25,1.49-.74,2.63.75,3.51,1.74,1.03,2.23-.79,2.96-1.56,1.11-1.17.62-2.01-1.02-2.04.32-2.15.02-3.82-1.7-5.64-3.3-3.48-3.39-8.42-4.03-12.83-.39-2.69,1.97-1.11,3.15-.58,7.06,3.2,14.11,6.42,20.65,10.64,1.16.74,2.17,2.27,4.21,1.12-2.28-3.21-5.63-5-8.75-6.94-4.35-2.71-8.68-5.76-13.46-7.41-5.85-2.02-8.79-5.36-9.55-11.45-.57-4.54-2.06-8.97-2.65-13.6,3.25,3.08,2.99,7.65,5.12,11.35,1.04-3.92-.56-7.25-1.64-10.64-1.19-3.74.05-4.88,3.71-3.57,1.4.5,2.83.94,4.24,1.4,6.2,2.86,12.39,5.71,18.59,8.57.18-.37.36-.74.54-1.11-5.83-4.13-11.74-8.1-19.19-9.11Z"/>
  <path class="cls-3" d="m122.21,191.24c-5.19,1.56-6.08,5.04-2.32,9.57,1.92,2.31,2.13,2.94-1.14,3.38-3.02.41-7.96,6.26-7.34,8.82.58,2.41,3.29,3.21,5.33,4.39-.34.97-1.12.66-1.61.58-6.02-.92-5.9-.92-6.72,5.31-.41,3.09-1.34,6.12-2.08,9.17-.53,2.16.21,4.38,1.84,5.15,1.52.72,2.46-1.48,3.38-2.95.31.42.86,1.04.8,1.11-5.11,5.62-2.69,14.41-8.63,19.87-2.78,2.55-5.99,3.89-9.14,5.51-5.27,2.71-10.69,5.11-16.47,7.84-1.28-10.32.18-20.61-2.85-31.8-.41,6.39-1.09,11.49-.97,16.57.14,5.8-2.08,11.21-2.12,16.93,0,1.47-1.02,2.17-2.17,2.15-1.41-.02-.96-1.42-1.1-2.31-2.23-13.34-3.79-26.71-3.37-40.31.1-3.09.96-6.74.03-9.24-2.46-6.61.7-12.24,1.73-18.19,1.12-6.49,3.19-12.82,4.58-19.27,2.29-10.61,4.86-21.21,10.21-30.67,4.68-8.27,8.75-16.96,14.59-24.54,1.79-2.32,3.07-5.19,7.47-4.56,2.04.29,5.34.63,7.82-1.53,1.23-1.07,3.83-1.28,3.26,2.4-.98,6.32-.52,12.71-.41,19.1.08,4.65,2.76,8.34,3.51,12.79,1.13,6.72.18,13.17-.74,19.6-.47,3.32,1.57,6.48-.51,10.01-1.44,2.45,3.44.64,3.79,3.05.1.7.83,1.31,1.33,2.05Z"/>
  <path class="cls-3" d="m165.04,265.73c3.93-2.21,7.96-2.84,12.18-.81.72.35,2.04.55,2.1.97.86,5.46,4.77,2.89,7.72,3.21,1.91.21,4.28,1.31,4.44,3.33.14,1.72-2.79.8-3.53,1.68-1.94,2.33-6.1,2.1-6.67,5.95-.09.63-1.39.99-.59,1.99.71.89,1.65,1.1,2.67.83.78-.2,1.48-.76,2.25-.88,1.07-.17,2.53-.57,2.96.82.4,1.28-.69,2.11-1.79,2.62-6.27,2.9-12.53,5.84-19.58,6.36-3.99-3.6-8.49-2.69-13.11-1.64-2.11.48-5.38,1.98-6.25-.3-1-2.6-4.27-4.63-2.6-8.42.64-1.46-1.32.19-2-.26-.21-.22-.43-.44-.65-.65-.53-.24.43-3.52-1.44-.83-1.28,1.84-1.91,4.12-3.01,6.6-3.02-4.96,1.87-8.79.35-14.09-4.4,6.99-7.22,13.65-9.57,20.54-2.44,2.45-2.63,6.02-4.23,9.5-1.67-2.1-1.08-3.7-.63-5.29,1.09-3.18.18-6.47.48-9.69.54-5.89-.71-12.19,4.53-16.96,1.22-1.11,1.61-3.39-.75-4.57,1.09-6.2,3.4-11.75,6.63-17.28,3.08-5.27,4.54-11.5,7.82-16.88,4.03-6.61,8.36-13.08,15.38-16.49,7.43-3.61,14.94-6.65,22.09-11.19,10.43-6.62,28.7.53,36,12,3.57,5.61,5.53,11.92,7.57,18.13,1.07,3.25-.21,4.63-4.29,6.51-8.78,4.06-17.67,4.97-26.71,4.52-11.62-.58-18.96-8.21-23.23-18.27-1.98-4.66-3.93-3.81-6.2-1.52-6.51,6.56-14.68,11.27-20.41,18.65-4.44.24-6.31,2.22-4.51,6.68,1.84.19,1.12-3.95,3.87-2.35-.55,2.13-2.39,3.88-1.79,6.34,3.27-2.62,4.73-6.63,7.6-9.51,3.46-.37,5.38-5.05,9.55-3.43-.48.27-1.25.47-.71,1.22.49.68,1.04.13,1.53-.15,6.89-1.75,16.47,1.24,18.53,6.18-6.47.28-12.99.23-18.01,5.07-3.49,1.67-5.59,5.02-6.39,8.19-.85,3.36,4.12,1.43,5.59,3.75,2.1,3.33,4.59,1.98,6.81-.2Zm20.45-27.72c7.83,6.01,14.34,6.6,21.6,2.43,3.2-1.83,4.04-3.43,3.81-7.6-7.4,7.14-15.84,8.82-25.42,5.17Zm13.22-25.89c-3.22.09-4.5,1.65-4.51,4.4-.01,3.08,1.73,4.67,4.59,4.5,2.53-.15,5.29-1.51,5.39-4.11.13-3.35-3.15-4.07-5.47-4.8Z"/>
  <path class="cls-3" d="m281.74,431.97c-1.18,4.21-2.54,7.35-7.81,8.93-8,2.4-15.79,3.91-24.2,4.3-17.92.84-35.45-1.63-52.91-4.61-13.62-2.32-25.85-9.12-38.69-14-14.07-5.34-24.92-15.45-34.69-25.59-16.33-16.95-32.94-34.22-42.8-56.32-2.52-5.66-5.13-11.28-7.71-16.92-.45-.99-1.58-1.99-.04-2.97,1.78-1.12,2.51.45,2.95,1.53,1.84,4.53,4.24,8.76,6.51,13.08,2.92,5.56,6.37,10.7,10.98,14.92,2.14,1.96,2.45,4.85,4.79,6.81,7.24,6.07,12.32,14.21,19.02,20.84,6.6,6.53,13.21,13.05,20.33,19.03,2.63,2.21,5.92,2.15,8.92,3.06,3.18.97,6.19,2.25,9.1,3.84,18.96,10.29,39.12,16.15,60.66,18.41,13.47,1.41,26.4-2.24,39.66-1.78,5.3.18,10.63-.35,15.94-.63,3.44-.18,6.42.92,9.15,2.91,1.35,1.04.09,2.18-.31,2.71-1.36,1.8-.24,2.09,1.12,2.44Z"/>
  <path class="cls-3" d="m233.64,385.97c-.09.92-.18,1.83-.27,2.75-.85-4.7-3.11-9.48-5.97-12.42-4.27-4.39-4.53-9.37-5.7-14.42-.22-.95-.05-2.48-1.15-2.48-5.67-.04-6.14-4.96-8.15-8.4-2.76-4.73-2.65-4.7-6.51-.6-1.54,1.64-3.21,3.47-5.2,4.29-1.51.62-5.54-5.08-5.52-7.03.01-2.29,1.13-4.07,2.08-6.01.72-1.47,1.65-3.41-.89-4.48-3.56-1.51-4.99-4.45-5.25-8.11,2.39-.39,3.55-2.76,5.7-3.53.55,2.71,8.98-.12,4.4,6.27-.36.5.39,1.22,1.13,1.16,2-.18,3.65,1.55,5.7.97,3.87-.97,4.13-6.57,8.87-6.74,0,3.04-1.22,5.66-2.62,8.63,4.02-.46,7.25.21,5.45,6.23,2.01-1.66,3.34-2.77,5.03-4.17.84,2.79-.67,5.81,1.5,8.21.55-.77,1.33-1.39,1.43-2.09.27-2.05,1.45-3.88,3.22-3.52,1.88.38,1.19,2.75,1.14,4.36-.04,1.16-.28,2.54.95,3.13,1.7.82,1.44-1.42,2.32-1.75.78-.29.68-2.03,2.35-1.02,2.45,1.48,6.19,1.42,6.89,4.89.43,2.16,1.64,3.91,2.22,6.21,2.19-6.1,9.03-7.35,12.51-12.65.95,1.58.37,4.78,2.99,4.42,1.71-.24,3.57-1.3,4.82-2.9,1.43-1.83,2.64-2.04,3.24.63-.29.85-.33,1.92.69,1.93,1.55.02,2.6-1.06,3.14-2.53l.02-.03c.77-.87,3.44,3.44,2.91-1.07-.07-.59.07-1.04,1.04-1.07,3.35-.07,3.35-.16,2.81-4.08,1.08-1.55,2.37-3.52,2.55-4.95.42-3.43,2.32-2.12,3.08-1.12,2.57,3.41,5.29,1.82,7.77.42,1.98-1.11,3.57-2.39,6.13-2.64,3.12-.31.69-2.31.27-3.6,2.16-.92,4.31-1.85,6.47-2.77,3.39,2.59,7.35,4.53,9.61,8.41-2.39,1.31-5.77-1.07-7.6,3.35-3,7.28-7.56,8.79-15.31,6.69-.02,1.45,1.44,3.23.25,4.18-4.59,3.69-1.77,7.64-.73,11.53,1.89,7.07-.22,9.89-6.51,14.32-4.89,3.45-4.39.6-4.82-2.48-.1-.69-.33-1.28-1.19-1.22-2.12,1.87-3.92,3.99-4.49,6.5-5.48-1.38-5.79-5.92-7.07-10.59-4.6,11.07-9.89,21.09-12.48,32.17-.87-1.72-1.81-3.4-2.6-5.16-.85-1.89-.8-3.86-4.31-3.46-2.36.27-3.06-3.38-3-5.91.08-3.14.04-6.21-2.14-9.27-1.72,1.64-.93,4.25-2.86,5.71-1.99-1.63,0-5.18-2.9-6.19-.06-1.69-.29-3.32-2.13-4.02-.61-.23-1.65,0-1.59.66.46,5.6-4.01,10.68-1.73,16.45Z"/>
  <path class="cls-3" d="m331.18,253.8c-1.84-1.72-1.34-3.38-.13-5.28,3.73-5.86,8.3-10.66,15.77-12.5-4.47-4.18-8.44-7.89-14.41-8.12-3.63-.14-6.52,1.15-8.34,4.36-1.33,2.35-3.3,4.14-4.94,6.21-7.05,8.84-16.21,9.71-26.48,7.74-4.67-.89-9.53-.92-14.32-1.03-3.2-.08-4.04-1.35-3.43-4.34,3.44-16.89,10.11-30.69,31.01-35.23,5.25-1.14,10.87-1.73,15.82,1.51,2.66,1.74,5.02.54,7.58-.03,2.24-.5,4.61-.82,3.04,3.04-.27.67-2.27,2.65-.11,3.21,5.14,1.35,6.7,3.69.99,9.34,12.13-4.41,19.48,2.07,27.58,5.71.56.25,1.11,1.41,1.36,1.32,5.76-2.06,8.54.83,10.12,5.88.05.17.56.27.86.28,3.88.17,3.85.24,4.64,4.03,1,4.78,2.86,9.41,2.59,14.42-.19,3.51-1.25,6.01-5.4,4.04-2.04-.97-3.91.09-5.85,0-5.51-.23-11.04-.78-16.54-.62-7.48.22-15.11,1.93-21.42-3.94Zm-47.01-19.02c-.06.74-.35,1.48-.12,2,2.07,4.64,6.23,7.03,10.73,7.99,5.76,1.24,11.57.48,16.48-3.39.41-.32.72-1.25.57-1.72-.36-1.06-1.39-.68-2.08-.42-8.85,3.36-16.86,2.08-24.03-4.21-.29-.26-.9-.16-1.55-.25Zm20.38-19.79c-3.08.26-4.37,2.42-4.41,5.03-.05,2.82,2.38,3.4,4.6,3.28,2.58-.14,4.5-1.73,4.56-4.37.06-2.91-2.17-3.77-4.74-3.94Z"/>
  <path class="cls-1" d="m195.03,145.03c1.98-1.21,3.4-.5,5.26.75,3.44,2.31,7.34,4.13,9.94-1.29,1.05-2.18,3.38-2.71,4.98-2.63,1.91.09,1.8,2.73,2.18,4.4.95,4.16,1.98,7.85,5.4,11.23,3,2.97,3.14,8.15,1.96,12.61-.7,2.65-.18,4.24,2.3,5.69,4.55,2.67,6.88,7.25,9.29,13.2,1.42-7.37,1.74-13.4.3-19.52-1-4.26-4.45-8.09-1.55-13.1.8-1.37-.53-4.18-1.26-6.2-2.8-7.7-4.12-15.48-3.43-23.76.22-2.57-1.14-4.95,2.75-5.2.81,2.2-.27,6.04,4.49,4.87.42-.1,2.87-.14,3.37,1.02,2.19,5.06,6.58,4.83,10.91,4.89,1.02,3.23-1.33,5.87-1.16,9.11-2.49-1.39-.44-4.86-3.52-5.66-1.01,3.31-1.98,6.51-3.18,10.46-2.42-4.52-2.3-8.94-2.9-13.03-.38-2.65-1.44-4.25-3.53-4.26-1.92-.02-2.44,2.21-2.62,4.1-.65,6.99.74,13.88,1.22,20.8.12,1.73.84,4.58,3.25,4.15,1.79-.32.63-2.86.83-4.39.14-1.11.03-2.25.03-3.38-1.41,6.41,1.62,12.15,2.99,18.07,1.89,8.18,3.43,9.3,9.64,9.05-.02,2.14.42,4.41-.87,6.29-4.9,7.12-6.16,10.11-6.21,18.63-.04,7-.72,13.88-2.17,20.71-.37,1.75-.93,3.47-1.53,5.67-2.51-1.95-2.46-4.93-4.54-7.3-4.08,5.21-3.14,11.99-6.85,16.82-1.28-2.75-2.21-6.18-2.72-9.69-1.27-8.82-5.87-15.22-13.56-19.58-2.09-1.19-3.68-2.89-3.53-5.59-.13-.84-.21-2.01.6-2.22,3.79-.99,3.42-3.92,3.39-6.73-.06-5.78-1.32-11.49-.96-17.32.25-3.96.09-7.97-.27-11.92-.13-1.46-.18-3.4-1.97-4.3-.83,1.63-3.34,1.54-3.71,3.65-.11.64-.32,1.26-.49,1.9-7.26-5.15-10.63-12.64-12.57-20.98Z"/>
  <path class="cls-1" d="m256.89,397.15c2.59-11.09,7.88-21.11,12.48-32.17,1.28,4.68,1.59,9.22,7.07,10.59.57-2.52,2.37-4.63,4.49-6.5.87-.06,1.1.54,1.19,1.22.43,3.08-.07,5.93,4.82,2.48,6.28-4.43,8.4-7.25,6.51-14.32-1.04-3.89-3.86-7.84.73-11.53,1.18-.95-.27-2.73-.25-4.18,7.76,2.1,12.31.59,15.31-6.69,1.83-4.42,5.21-2.04,7.6-3.35,6.77,3.04,10.56,9.18,15.05,14.56,1.48,1.78,0,3.37-.92,4.93-2.43,4.13-5.93,7.8-5.4,13.5-4.06-1.05-4.64-4.3-6.1-7.66-2.16,3.04-1.82,6.41-2.62,9.37-.41,1.5-.49,3.31-2.31,3.32-4.41.03-7.38,3.58-10.31,5.55-2.86,1.93-4.42-2.81-6.59.37-.76,1.12-2.33,1.76-2.83,3.72-1.01,3.91-.11,9.27-6.51,9.9-.96.09-1.34,2.12-1.53,3.47-.8,5.57-2.12,5.46-7.47,6.18-4.64.63-6.04-1.52-7.69-5.21-1.45,2.84-.55,6.08-3.56,7.29-1.97.79-4.08,1.2-5.52-.55-1.59-1.92-4.69-1.68-5.63-4.3Z"/>
  <path class="cls-1" d="m191.12,329.05c.26,3.67,1.69,6.61,5.25,8.11,2.54,1.07,1.6,3.01.89,4.48-.95,1.94-2.06,3.72-2.08,6.01-.01,1.95,4.01,7.65,5.52,7.03,1.99-.82,3.66-2.65,5.2-4.29,3.85-4.1,3.74-4.13,6.51.6,2.01,3.44,2.48,8.36,8.15,8.4,1.11,0,.93,1.53,1.15,2.48,1.17,5.06,1.42,10.03,5.7,14.42,2.86,2.94,5.12,7.71,5.97,12.42.96,3.99-2.21,7.25-1.98,11.27.09,1.49-2.63,1.28-4.15.27-3.07-2.04-4.81-4.76-4.14-8.59.72-4.09-1.02-6.47-5.07-6.69-3.47-.19-2.93-2.51-2.82-4.56.18-3.39-.21-6.12-4.66-5.53-.32.04-.91.03-.95-.11-2.06-5.92-10.11-4.67-12.41-10.52-1.59-4.06-4.05-2.84-6.24-.21-1.88,2.26-3.48,4.47-6.96,5.02-6.07.96-7.44-3.94-9.67-7.29-1.4-2.11-2.72-4.66-4.75-5.5-4.06-1.69-3.53-4.7-3.29-7.75.74-9.47,4.89-17.01,12.75-22.52,5.13-3.6,9.98-7.63,16.51-10.12-1.28,7.32-9.06,9.55-11.36,15.85,3.15.53,4.38-2.74,6.93-2.69Zm7.64,26.99c-.14-.24-.24-.63-.41-.66-.24-.04-.66.1-.77.3-.27.49,0,.83.53.81.22,0,.43-.29.65-.45Z"/>
  <path class="cls-3" d="m252.97,176.99c-6.21.24-7.75-.87-9.64-9.05-1.37-5.92-4.4-11.66-2.99-18.07,0,1.13.12,2.27-.03,3.38-.2,1.54.96,4.07-.83,4.39-2.41.43-3.13-2.41-3.25-4.15-.48-6.93-1.87-13.81-1.22-20.8.17-1.88.7-4.11,2.62-4.1,2.1.02,3.15,1.61,3.53,4.26.59,4.1.47,8.51,2.9,13.03,1.2-3.95,2.18-7.15,3.18-10.46,3.08.79,1.04,4.26,3.52,5.66-.17-3.25,2.17-5.88,1.16-9.11.34-1.38-.33-3.19,2.48-3.05,2.29.11,4.69.85,7-.16,3.16-1.38,4.42-.36,4.53,3.11.12,3.69,10.07,7.54,13.15,5.26.88-.02,1.77-.04,2.65-.06-.16,1.6-.32,3.19-.48,4.79-.64,1.26-.36,2.57-.31,3.9.33,8.59-1.4,14.15-6.05,19.65-2.01-2.33.07-5.35-1.54-8.38-2.57,9.92-5,19.3-7.42,28.68-1.35.18-.88-.99-1.18-1.58.08-1.49,1.29-3.19-.79-4.28-1.26-2.5-1.03-5.18-.91-7.85-1.69-5.43-.75-10.85-.12-16.31.37-3.19,5.05-4.45,3.56-8.35-.28-.18-.54-.38-.79-.59-.48-1.24.73-2.71-.58-3.96-.56.88-1.1,1.7-1.61,2.54-5.02,8.21-3.5,18.23-7.41,26.75.98,2.92-4.07,1.99-3.13,4.89Z"/>
  <path class="cls-3" d="m254.05,270.03c3.63-2.22,7.19-3.76,10.26.88.37.57.83,1.59,1.87.64,3.29-3.01,3.52,1.22,4.75,2.28,1.78,1.54,1.83,3.78,0,5.72-2.29,2.43-4.74,4.57-7.8,6.07-6.95,3.4-8.57,10.16-9.83,16.83-.54,2.85,1.33,5.43,3.55,7.35,5.76,5,12.02,8.89,20.1,8.23,1.4-.11,3.11-.13,3.46,1.23.48,1.85-1.49,2.13-2.78,2.71-4.27,1.89-8.35,1.02-12.36-.82-3.9-1.8-8.09-3.21-11.59-5.61-3.43-2.36-5.98-1.31-9.09.19-6.59,3.2-12.75,7.72-20.63,7.27-.5-.03-1.11.17-1.48-.05-1.68-1.01-5.15,1.01-5.14-2.01,0-1.89,3.21-1.44,5.02-1.92,7.48-1.94,14.27-5.29,20.14-10.33,2.77-2.38,2.74-13.12-.13-17.36-1.63-2.41-3.25-4.97-6.51-5.86-2.63-.72-4.36-2.93-6.15-4.91-4.21-4.66-4.06-5.31,1.83-7.88.6-.26,1.26-.58,1.67-1.06,3.25-3.81,7.19-4.13,11.58-2.43.34,2.92-2,1.78-3.32,2.22-2.44.82-3.65,4.55-1.68,5.23,4.38,1.51,6.03,4.62,6.87,8.72.51,2.48,3.11,1.12,4.55,2.1.94.64,1.45-.25,1.44-1.19-.03-4.85,2.49-8.31,6.04-11.23,1.24-1.02,2.01-2.52,1.32-3.86-.84-1.64-2.33.02-3.55-.04-.98-.05-2.03.17-2.42-1.12Z"/>
  <path class="cls-3" d="m103.11,297.98c.1,3.75-.34,7.5-3.65,9.76-6.15,4.21-8.51,3.35-11.74-3.53-4.27-9.1-7.3-18.58-9.32-28.41-.5-2.41-.28-3.97,2.23-5.21,10.03-4.97,20.2-9.61,30.55-13.86,1.24-.51,2.66-1.36,3.69-.4,1.07,1,.06,2.44-.31,3.65-1.45,4.7-3.33,9.17-6.09,13.3-1.14,1.71-2.93,3.29-2.62,5.73-1.39,1.35-2.05,3.28-1.75,4.89.91,4.87-.45,9.33-1.74,13.86.12-.02.25-.09.35-.05.15.06.27.18.4.28Z"/>
  <path class="cls-3" d="m313.38,277.76c.2-.78.45-2.26.59-2.25,4.75.34,7.98-5.03,13.01-3.47,1.31.98,2.56,2.06,3.95,2.91,1.04.63,2.82.71,2.8-.66-.07-4.7,3.32-1.54,5.12-2.52-1.09-2.05-.13-5.55,1.08-5.01,2.77,1.25,8.35-1.67,8.19,5.02.93-3.98,5.28-7.43-.41-11.15,7.68-1.89,14.51,1.17,21.38.16,1.38-.55,2.43.65,3.95.59,5.81-.24,9.66,6.79,6.64,11.81-.81,1.34-1.1,3.21-.55,3.59,3.92,2.76.16,5.84.61,8.68.14.88.02,1.81-1.19,1.3-.43-.18-.56-1.06-.82-1.63.51-5.11.34-10.2-.39-15.28-.25-1.75-.11-4.26-2.61-3.65-.87.21-3.42,1.6-2.52,4.62,1.03,3.47,1.17,7.3.59,11.01-1,.86-.73,2.06-.83,3.16-5.98.91-2.59,6.84-5.14,10.24-1.33-2.87-.93-5.14-.29-7.46,1.03-3.73-1.16-3.43-3.58-2.78-4.03-3.81-9.3-2.24-13.92-2.8-8.88-1.08-17.89-.6-26.84-.15-2.22.11-4.23-.33-6.21-1.21-.43-1.39-1.41-2.31-2.6-3.06Z"/>
  <path class="cls-1" d="m265.94,185.74c2.43-9.38,4.85-18.75,7.42-28.68,1.6,3.02-.48,6.05,1.54,8.38,4.64-5.5,6.38-11.06,6.05-19.65-.05-1.33-.33-2.64.31-3.9,2.51,3.38,3.39-1.59,5.35-1.04.27.65-.34,2.47,1.39,1.25.84-.6,1.78-.89,1.71.15-.34,5.02,3.42,3.61,6.09,4.39,3.19.93,5.58.49,8.24-1.55,1.56-1.2,4.02-.51,6.05.12-3.37,7.45-7.68,14.34-12.55,20.89-1.08-1.25-.91-2.78-.98-4.26-.18-4.17-2.49-6.52-6.49-7.78-.6,3.92-1.51,7.63-1.67,11.37-.47,10.94-5.59,21.13-5.05,32.21-4.5-2.23-5.02-1.93-6.76,3.88-.67-4.36-6.45-12.92-10.64-15.77Z"/>
  <path class="cls-1" d="m194.92,294.31c-3.81,8.15-11.23,10.21-18.55,12.34-8.27,2.4-16.52,4.84-24.13,9-.14.08-.37.23-.45.18-5.06-3.14-9.82,2.77-15.07.4-2.51-1.13-3.19-2.04-1.93-4.28,1.3-2.31,3.7-4.12-.12-6.85-1.76-1.26,1.01-2.4,2.49-2.96,9.02-3.43,18.53-4.87,27.98-6.14,9.8-1.31,19.69-2.51,29.78-1.69Z"/>
  <path class="cls-1" d="m331.35,144.05c2.71-1.93,4.94-3.55,7.21-5.11.95-.65,2.12-1.43,3.05-.14.82,1.13.12,2.75-.67,3.11-3.59,1.64-3.98,5.12-5.29,8.14-1.77,4.09-6.22,4.97-9.36,7.43-.92.72-1.6-.06-2.18-1.13-2.34-4.31-6.14-5.56-10.8-4.67,1.43-16.99,28.86-44.16,45.88-45.12-.29,4.4-2.98,7.1-6.16,9.48-7.43,5.56-14.62,11.31-19.18,19.69-1.34,2.46-2.58,4.83-2.52,8.31Z"/>
  <path class="cls-3" d="m315.94,287.66c13.15-4.59,26.58-3.43,40.04-1.99,1.74.19,2.86,1.31,4.17,2.19-.54,1.95,2.79,1.74,2.12,3.78-.11.14-.22.27-.34.4-2.11-.01-2.67,1-2.8,3.11-.19,3.1-1.48,5.92-4.15,7.85-12.34-3.41-24.84-6.03-37.61-7.24-1.13-.11-2.21-.64-3.31-.98,3.54-1.6.91-4.84,1.9-7.12Z"/>
  <path class="cls-3" d="m283.34,197.63c-.54-11.08,4.58-21.27,5.05-32.21.16-3.74,1.07-7.44,1.67-11.37,4,1.26,6.32,3.61,6.49,7.78.06,1.48-.1,3.01.98,4.26-.6,2.57-.98,5.23-1.88,7.69-.66,1.81-.76,3.48.7,4.5,1.91,1.33,2.79-.86,3.97-1.82,1.01-.82,1.96-1.7,3.54-3.07-.13,3.36-1.79,5.14-3.53,6.56-2.82,2.3-3.38,5.87-4.04,8.72-1.45,6.34-2.43,9.9-6.25,13.79-2.42,2.46-3.86,2.36-4.27-1.33.26-1.53.4-2.99-1.77-3.14-.19-.17-.41-.29-.65-.38Z"/>
  <path class="cls-3" d="m207.6,166.01c.17-.63.38-1.25.49-1.9.37-2.11,2.89-2.02,3.71-3.65,1.78.9,1.83,2.84,1.97,4.3.36,3.95.52,7.96.27,11.92-.37,5.83.89,11.54.96,17.32.03,2.81.41,5.75-3.39,6.73-.81.21-.73,1.38-.6,2.22-7.21-5.15-9.51-13.56-14.13-20.33,1.74-1.84,2.36,1.27,4.02-.06-1.2-2.45-2.51-4.98-3.66-7.58-.61-1.38-1.12-3.26.37-4.07,1.7-.93,2.55.85,3.32,2.14.6.99,1.15,2.03,1.85,2.95.81,1.07,1.91,2.25,3.3,1.76,1.81-.64.8-2.02.45-3.28-.83-2.94,2.2-5.45,1.09-8.48Z"/>
  <path class="cls-1" d="m348.92,306.02c4.96.74,9.31,3.19,13.91,4.93,1.02.38,1.84.86,1.82,2.03-.05,3.46.89,7.04-.47,10.34-1.67,4.04-4.53,3.67-8.8,3.82-8.71.31-14.33-5.27-21.42-7.85.62-4.09,4.25-3.85,7-5.03,3.74-1.6,7.77-3.12,7.95-8.24Zm4.59,17.61c-.02.23-.04.46-.06.69.08-.11.22-.21.23-.32,0-.12-.1-.25-.16-.37Z"/>
  <path class="cls-1" d="m369.08,260.78c-6.87,1.01-13.69-2.05-21.38-.16,5.69,3.72,1.34,7.17.41,11.15.16-6.69-5.42-3.77-8.19-5.02-1.21-.55-2.17,2.96-1.08,5.01-1.81.98-5.19-2.17-5.12,2.52.02,1.37-1.76,1.29-2.8.66-1.39-.84-2.64-1.93-3.95-2.91.4-1.78.91-3.9-.4-5.16-3.86-3.73-1.83-6.21,1.24-8.88,1.33-1.16,2.27-2.78,3.38-4.19,6.31,5.87,13.94,4.15,21.42,3.94,5.5-.16,11.02.39,16.54.62-.02.81-.04,1.61-.06,2.42Z"/>
  <path class="cls-3" d="m348.92,306.02c-.18,5.12-4.21,6.64-7.95,8.24-2.75,1.18-6.39.94-7,5.03-4.98-2.45-9.97-4.9-14.95-7.34,0-1.34-1.15-1.79-1.89-2.61-3.03-3.33-7.72-4.67-10.21-8.61,3.6.18,7.2.35,10.8.53,2.03,2.83,3.47,6.22,7.56,7.87-.51-2.87-.93-5.22-1.35-7.56,8.48.67,16.8,2.23,25,4.46Z"/>
  <path class="cls-1" d="m128.92,292.77c2.35-6.89,5.17-13.56,9.57-20.54,1.52,5.3-3.37,9.13-.35,14.09,1.1-2.48,1.74-4.77,3.01-6.6,1.87-2.68.91.59,1.44.84-.47.39-.59.82-.03,1.18.08.05.44-.34.67-.53.67.44,2.64-1.2,2,.26-1.66,3.79,1.61,5.82,2.6,8.42.87,2.28,4.15.78,6.25.3,4.62-1.06,9.11-1.97,13.11,1.64-10.54,1.87-21.34,2.28-31.61,5.68-4.21,1.39-5.51-1.65-6.67-4.73Z"/>
  <path class="cls-1" d="m193.42,159.98c-2.85-4.47-7.05-4.61-11.45-4.08-.65.08-1.73-.12-1.91.2-3.68,6.6-6.37.75-7.96-1.23-2.82-3.51-6.58-6.01-9.21-9.83-1.83-2.66-.08-3.76.55-4.98.91-1.78,2.99-1.09,4.23.08,4.1,3.9,9.74,3.83,14.55,5.87.71.3,1.97.5,2.4.11,4.94-4.48,5.62,1.11,5.92,3.17.52,3.63,5.13,5.94,2.88,10.67Z"/>
  <path class="cls-1" d="m158.3,320.12c5.42-5.59,12.48-6.93,19.14-9.09,1.87-.61,3.85-.94,5.81-1.14,1.37-.14,3.25-.7,3.8,1.22.39,1.36.45,3.02-.81,4.18-5.68,5.26-11.35,10.51-17.08,15.71-1.24,1.13-2.25,1.02-2.94-.83-.74-2.01-1.9-3.85-2.72-5.83-.94-2.27-2.25-3.97-5.2-4.21Z"/>
  <path class="cls-1" d="m362.26,291.63c.67-2.03-2.65-1.82-2.12-3.78.96-.93,2.35-1.45,2.82-2.87,2.42-.65,4.61-.95,3.58,2.78-.64,2.32-1.04,4.59.29,7.46,2.54-3.4-.85-9.33,5.14-10.24,2.04,7.21,2.24,14.57,1.82,21.99-.08,1.37-.62,2.4-2.14,1.89-5.58-1.89-11.12-3.9-16.68-5.86,2.67-1.93,3.96-4.76,4.15-7.85.13-2.11.69-3.12,2.8-3.11.22.29.45.57.67.86.09-.11.29-.27.26-.32-.17-.33-.38-.63-.59-.94Z"/>
  <path class="cls-1" d="m330.27,322.85c4.16,1.37,7.43,4.18,10.94,6.64,1.46,1.02,1.68,2.3,1.64,3.86-.06,2.83.11,5.67-.09,8.48-.12,1.65,1.04,3.98-1.42,4.74-2.11.65-3.91-.58-5.31-2.08-5.07-5.44-10.08-10.94-15.11-16.42,7.05-2.73,7.72-3.1,9.35-5.22Z"/>
  <path class="cls-3" d="m106.88,309.91c-4.58,3.48-6.41,7.96-5.42,13.49.4,2.25-1.58,2.66-2.68,3.61-1.51,1.3-4.17.74-5.03,3.4-.38,1.19-1.83.33-2.46-.23-1.98-1.77-3.69-3.87-4.19-6.53-.25-1.33-1.56-4.07,2.11-3.19.27.07.94-.77,1.15-1.3,3.02-7.47,9.84-8.11,16.52-9.26Z"/>
  <path class="cls-1" d="m128.32,265.77c2.36,1.18,1.97,3.46.75,4.57-5.24,4.77-4,11.06-4.53,16.96-.29,3.22.61,6.5-.48,9.69-3.01-.5-5.36.61-7.23,3.21-3.17-8.23-.21-15.87,1.33-23.95,1.62,1.41-.11,3.46,1.9,4.94.45-1.84.35-4,1.38-5.16,2.16-2.42-.31-8.54,6.08-7.65.73.1.9-1.59.8-2.61Z"/>
  <path class="cls-1" d="m254.05,270.03c.39,1.28,1.44,1.07,2.42,1.12,1.21.06,2.71-1.6,3.55.04.68,1.34-.09,2.84-1.32,3.86-3.54,2.92-6.07,6.38-6.04,11.23,0,.94-.5,1.83-1.44,1.19-1.44-.97-4.04.39-4.55-2.1-.84-4.11-2.49-7.21-6.87-8.72-1.97-.68-.76-4.41,1.68-5.23,1.32-.44,3.67.7,3.32-2.22,3,1.27,6.16.69,9.26.83Z"/>
  <path class="cls-1" d="m357.05,179.1c-.26,4.7,2.66,8.95,1.68,13.87-.41,2.09,1.56,3.39,3.96,3.01,1.03.57,1.1,1.62,1.18,2.59.23,2.76,1.48,6.29-.96,7.97-3.24,2.24-5.22-2.51-8.33-3.04-1.25-.21-.84-3.03-.3-4.57.84-2.43.79-4.86.74-7.36-.07-3.67-1.83-5.48-5.43-5.59-1.67-.05-3.84,0-4.3-1.65-.57-2.04,1.62-3.12,3.11-4.01,2.65-1.59,5.63-1.77,8.65-1.21Zm2.43,25.4c.14-.33.36-.62.35-.91,0-.3-.24-.6-.37-.9-.12.29-.35.59-.35.88,0,.3.22.59.36.93Z"/>
  <path class="cls-3" d="m388.04,303.79c-3.28,1.87-1.73,5.68-2.65,8.86-.2.68-.65,2.41-2.3,2.09-1.69-.33-2.57-1.53-2.84-3.07-1.08-6.37-2.08-12.75-3.1-19.13-.17-1.05-.24-1.57,1.39-1.59,1.74-.02,3.35.1,3.27,1.83-.19,3.75.89,5.77,4.93,6.29,1.66.21.93,2.54,1.3,4.74Z"/>
  <path class="cls-3" d="m330.27,322.85c-1.63,2.12-2.3,2.49-9.35,5.22-4.05-3.37-8.11-6.73-12.16-10.1,1.25-1.01.51-2.58,1.07-3.78,6.96,2.54,14.08,4.7,20.44,8.66Z"/>
  <path class="cls-1" d="m165.04,265.73c-2.22,2.18-4.71,3.53-6.81.2-1.47-2.33-6.44-.39-5.59-3.75.8-3.16,2.9-6.52,6.39-8.19.06,2.32,1.56,3.11,3.56,3.29,2.25.19,3.99,1.33,6.86,3.38-5.65-.55-4.83,2.37-4.41,5.07Z"/>
  <path class="cls-1" d="m256.1,172.11c3.91-8.52,2.39-18.54,7.41-26.75.51-.84,1.05-1.66,1.61-2.54,1.32,1.25.1,2.72.58,3.96-1.05.86-1.09,1.9-.49,3,.09.16.58.28.73.18,1.01-.67.79-1.63.53-2.59,1.49,3.91-3.19,5.16-3.56,8.35-.62,5.45-1.56,10.88.12,16.31-2.32-.18-4.64-.65-6.95.07Z"/>
  <path class="cls-1" d="m315.94,287.66c-.99,2.28,1.64,5.52-1.9,7.12-4.94,1.21-9.59-.67-15.67-1.36,5.86-4.44,11.3-6.28,17.57-5.76Z"/>
  <path class="cls-1" d="m372.79,281.82c.58-3.72.44-7.55-.59-11.01-.9-3.02,1.65-4.41,2.52-4.62,2.5-.61,2.36,1.9,2.61,3.65.73,5.08.9,10.17.39,15.28-2.52.21-3.51-1.87-4.93-3.29Z"/>
  <path class="cls-1" d="m103.11,297.98c-.13-.1-.25-.22-.4-.28-.1-.04-.23.03-.35.05,1.29-4.52,2.65-8.99,1.74-13.86-.3-1.61.36-3.54,1.75-4.89,3.34-1.43,2.39.9,1.84,2.3-.92,2.33-1.89,4.37,1.73,5.18,1.25.28,1.35,1.85.68,2.39-3.08,2.5-3.62,6.89-6.99,9.11Z"/>
  <path class="cls-1" d="m306.91,300.72c2.49,3.94,7.18,5.28,10.21,8.61.75.82,1.9,1.27,1.89,2.61-6.97-2.75-13.66-6.02-20.29-10.4,3-2.03,5.54-2.08,8.19-.82Z"/>
  <path class="cls-1" d="m375.17,210.84c-.3,7.24,5.12,13.19,1.8,20.29-.71-2.22-1.23-4.27-2.04-6.21-.41-.99-.3-3.28-2.73-1.52-.99.72-1.25-1.13-1.65-1.88-.28-.52-1.45-2.36,1.02-1.12.81.41.6-1.55,1.06-2.34,1.19-2.05-.45-5,2.53-7.22Z"/>
  <path class="cls-3" d="m285.98,426.89c5.32.5,10.61-.15,16.01-.42-5.12,3.47-10.41,6.16-16.85,5.31.46-.83.77-1.8,1.41-2.46,1.27-1.32,1.35-1.24-.57-2.43Z"/>
  <path class="cls-1" d="m208.05,333.92c-2.05.58-3.7-1.15-5.7-.97-.74.07-1.49-.66-1.13-1.16,4.58-6.39-3.85-3.56-4.4-6.27,1.37-2.6,3.27-1.42,4.96-.57,2.19,1.11,4.35,1.34,7.32-.05-1.69,3.25-1.51,6.13-1.06,9.01Z"/>
  <path class="cls-1" d="m233.64,385.97c-2.28-5.77,2.19-10.85,1.73-16.45-.05-.66.98-.89,1.59-.66,1.84.69,2.07,2.33,2.13,4.02-2.89,1.08-2.23,3.67-2.37,5.83-.18,2.82-.44,5.53-3.08,7.27Z"/>
  <path class="cls-1" d="m148.14,245.1c-2.87,2.88-4.33,6.89-7.6,9.51-.6-2.46,1.25-4.21,1.79-6.34-2.76-1.6-2.03,2.53-3.87,2.35-1.79-4.46.08-6.44,4.51-6.68,1.23,2.6,3.43.84,5.17,1.16Z"/>
  <path class="cls-1" d="m151.85,189.59c-1.53.21-3.05.11-4.3.65-2.54,1.1-2.83-.13-2.77-2.16.02-.8.02-1.71-.32-2.39-.64-1.28-2.29-2.69-.83-3.88,1.72-1.4,2.94.72,3.99,1.72,1.72,1.64,3.83,3.12,4.24,6.07Z"/>
  <path class="cls-1" d="m395.91,265.06c7.45,1.01,13.36,4.98,19.19,9.11-.18.37-.36.74-.54,1.11-6.2-2.86-12.39-5.71-18.59-8.57-.02-.55-.04-1.1-.06-1.65Z"/>
  <path class="cls-3" d="m115.46,100.87c-.06-4.37,1.61-7.65,3.84-10.73.78-1.08,1.86-1.58,2.94-.78,1.47,1.09.15,1.81-.53,2.71-2.03,2.71-3.93,5.51-6.25,8.8Z"/>
  <path class="cls-1" d="m148.01,209.34c3.26,2.46,1.72,5.01.65,7.46-.56,1.27-1.2,3.21-2.96,2.33-1.19-.6-1.54-2.35-.87-3.97.81-1.96,1.54-3.94,3.18-5.83Z"/>
  <path class="cls-1" d="m323.92,301.56c.42,2.34.84,4.69,1.35,7.56-4.08-1.65-5.53-5.04-7.56-7.87,2.06.29,4.2-1.1,6.21.31Z"/>
  <path class="cls-1" d="m313.38,277.76c1.19.74,2.17,1.67,2.6,3.06-2.35,3.71-6.25,1.76-9.91,3.34,1.34-4.39,5.63-3.82,7.31-6.39Z"/>
  <path class="cls-1" d="m285.98,426.89c1.92,1.18,1.85,1.11.57,2.43-.64.66-.95,1.63-1.41,2.46-1.14-.06-2.32-.7-3.41.19-1.36-.35-2.48-.64-1.12-2.44.4-.52,1.66-1.67.31-2.71,1.78-6.62,3.37.41,5.06.07Z"/>
  <path class="cls-1" d="m76.11,291.01c.62-2.46-.66-4.28-2.04-6.06-.33-3.04-.66-6.07-.98-9.11,1.08-1.54,1.48-1.11,1.9.49,1.26,4.82,2.56,9.63,2.04,14.69l.05-.06c-.34,0-.68,0-1.02,0,0,0,.05.05.05.05Z"/>
  <path class="cls-1" d="m280.96,338.94c.54,3.92.54,4.01-2.81,4.08-.98.02-1.11.47-1.04,1.07.53,4.51-2.14.2-2.91,1.07,1.51-2.88,1.86-7.02,6.76-6.22Z"/>
  <path class="cls-1" d="m307.23,324.28c-2.16.92-4.31,1.85-6.47,2.77-2.54-2.49,2.11-4.11-.32-7.29,3.09,1.93,5.37,2.56,6.79,4.52Z"/>
  <path class="cls-1" d="m309.82,314.19c-.56,1.2.18,2.77-1.07,3.78-2.59-1.33-4.79-3.1-7.14-6.31,3.37,1.04,5.79,1.79,8.21,2.53Z"/>
  <path class="cls-3" d="m66.91,310.1c2.76,3.39,4.24,7.3,5.19,12.7-3.23-4.47-4.16-8.61-5.19-12.7Z"/>
  <path class="cls-1" d="m377.57,201.27c-1.73-2.8-.97-5.67-.25-8.94,2.19,2.82,1.04,6.18,2.35,8.84-.7.03-1.4.06-2.1.09Z"/>
  <path class="cls-1" d="m371.89,315.02c1.44.43,2.22,1.44,1.94,2.93-.25,1.34-1.11,2.76-2.54,2.58-1.79-.23-1.21-2.04-1.27-3.26-.06-1.22.14-2.37,1.87-2.24Z"/>
  <path class="cls-1" d="m210.9,68.92c-2.85.49-5.55,2.38-10.08.87,4.11-1.66,6.85-3.15,10.21-2.7-.04.61-.08,1.22-.13,1.83Z"/>
  <path class="cls-1" d="m398.99,149.96c-1.93-1.6-3.29,4.71-5.45.39-.54-1.08-2.28-1.89-1.25-3.27.76-1.02,2.12.17,3.22.02,1.41.25,1.89,2.33,3.67,1.84,0,0-.17-.04-.17-.04,0,.35-.02.7-.02,1.06Z"/>
  <path class="cls-3" d="m73.08,275.84c.33,3.04.66,6.07.98,9.11-2.25-1.67-2.44-4.29-3-6.71-.37-1.6.31-2.47,2.02-2.41Z"/>
  <path class="cls-1" d="m396.67,314.86c1.65.04,2.13.87,1.02,2.04-.73.77-1.22,2.59-2.96,1.56-1.49-.88-2-2.02-.75-3.51.9-.03,1.79-.06,2.69-.09Z"/>
  <path class="cls-1" d="m263.97,179.88c2.08,1.09.87,2.79.79,4.28-1.72-1.16-3.64-2.27-.79-4.28Z"/>
  <path class="cls-1" d="m274.18,345.18c-.54,1.48-1.59,2.55-3.14,2.53-1.02-.01-.98-1.08-.69-1.93,1.28-.2,2.56-.4,3.84-.6Z"/>
  <path class="cls-1" d="m283.99,198.01c2.17.15,2.03,1.61,1.77,3.14-1.61-.47-1.61-1.85-1.77-3.14Z"/>
  <path class="cls-1" d="m375.77,205.84c.15-.92.71-1.48,1.55-1.8.49.41.88.92.49,1.53-.53.84-1.35.19-2.04.27Z"/>
  <path class="cls-1" d="m77.02,291.02c.61.15,1.38.05,1.46.97,0,.12-.18.35-.29.36-.96.02-.74-.92-1.11-1.39,0,0-.05.06-.05.06Z"/>
  <path class="cls-3" d="m391.27,141.09c0,.86-.15,1.6-1.26,1.1-.25-.11-.33-.59-.49-.91.6-.02,1.19-.05,1.79-.09,0-.02-.04-.11-.04-.11Z"/>
  <path class="cls-1" d="m76.05,290.95c-.08.14-.17.29-.25.43.1-.13.2-.25.3-.38,0,0-.05-.05-.05-.05Z"/>
  <path class="cls-2" d="m286.61,140.85c-1.96-.55-2.84,4.42-5.35,1.04.16-1.6.32-3.19.48-4.79.85-.55,1.88-1.4.38-1.99-1.51-.6-3.43-.69-3.03,2.05-3.08,2.28-13.03-1.57-13.15-5.26-.11-3.48-1.37-4.49-4.53-3.11-2.31,1.01-4.71.27-7,.16-2.8-.14-2.13,1.67-2.48,3.05-4.33-.05-8.72.17-10.91-4.89-.5-1.16-2.96-1.12-3.37-1.02-4.76,1.17-3.69-2.67-4.49-4.87,1.22-1,3-1.8,4.14-1.15,5.51,3.13,10.88.47,16.27-.06,1.66-.16,2.55,1.64,4.14,1.06,1.15,5.43,3.82,1.8,5.45.65,4.14-2.92,13.64-3.23,18.11-1.08,2.26,1.09.41,3.68,2.87,4.46,2.45.78,4.57-.33,6.84-.17.03.74.07,1.48.1,2.22-1.48,2.39-4.42,4.13-1.99,7.85,1.54,2.35-2.1,3.66-2.48,5.85Z"/>
  <path class="cls-1" d="m291.07,127.15c-.03-.74-.07-1.48-.1-2.22,2.1-2.55,3.25-6.12,8.18-7.1-2.7,3.88-2.93,8.55-8.08,9.32Z"/>
  <path class="cls-2" d="m398.99,149.96c0-.35.02-.7.02-1.06.25.1.67.16.71.32.14.54-.18.79-.73.74Z"/>
  <path class="cls-2" d="m185.49,238.01c9.58,3.65,18.01,1.97,25.42-5.17.22,4.17-.62,5.76-3.81,7.6-7.27,4.17-13.78,3.58-21.6-2.43Z"/>
  <path class="cls-2" d="m198.71,212.12c2.33.74,5.6,1.45,5.47,4.8-.1,2.6-2.87,3.96-5.39,4.11-2.86.17-4.6-1.43-4.59-4.5.01-2.75,1.29-4.31,4.51-4.4Z"/>
  <path class="cls-2" d="m158.52,242.74c-.5.27-1.05.83-1.53.15-.54-.76.23-.95.71-1.22.28.36.55.72.83,1.08Z"/>
  <path class="cls-2" d="m284.17,234.78c.65.09,1.25,0,1.55.25,7.16,6.29,15.17,7.57,24.03,4.21.69-.26,1.73-.64,2.08.42.16.47-.15,1.4-.57,1.72-4.91,3.87-10.72,4.63-16.48,3.39-4.49-.97-8.65-3.35-10.73-7.99-.23-.51.06-1.26.12-2Z"/>
  <path class="cls-2" d="m304.55,214.99c2.57.17,4.81,1.04,4.74,3.94-.06,2.64-1.98,4.23-4.56,4.37-2.22.12-4.65-.46-4.6-3.28.05-2.61,1.33-4.77,4.41-5.03Z"/>
  <path class="cls-3" d="m198.76,356.03c-.22.16-.43.44-.65.45-.53.02-.8-.33-.53-.81.11-.19.53-.34.77-.3.17.03.27.42.41.66Z"/>
  <path class="cls-1" d="m279.08,137.16c-.39-2.74,1.52-2.65,3.03-2.05,1.5.6.47,1.44-.38,1.99-.88.02-1.77.04-2.65.06Z"/>
  <path class="cls-2" d="m353.51,323.63c.06.12.17.25.16.37,0,.11-.15.21-.23.32.02-.23.04-.46.06-.69Z"/>
  <path class="cls-3" d="m143.24,281.2c-.23.19-.6.58-.67.53-.56-.37-.44-.8.03-1.18.22.21.43.43.65.65Z"/>
  <path class="cls-3" d="m362.26,291.63c.2.31.42.61.59.94.03.05-.17.21-.26.32-.22-.29-.45-.57-.67-.86.12-.13.23-.26.34-.4Z"/>
  <path class="cls-2" d="m359.48,204.5c-.14-.34-.36-.63-.36-.93,0-.29.22-.59.35-.88.13.3.36.6.37.9,0,.29-.21.58-.35.91Z"/>
  <path class="cls-3" d="m266.49,147.38c.25.96.48,1.92-.53,2.59-.15.1-.65-.03-.73-.18-.61-1.1-.56-2.14.49-3,.25.21.51.41.78.59Z"/>
</svg>