<?xml version="1.0" encoding="UTF-8"?>
<svg id="Capa_1" data-name="Capa 1" xmlns="http://www.w3.org/2000/svg" viewBox="0 0 800 800">
  <defs>
    <style>
      .cls-1 {
        fill: #48610b;
        stroke-width: 0px;
      }
    </style>
  </defs>
  <path class="cls-1" d="m197.37,715.69c59.21,30.27,125.66,46.05,192.11,47.37h10.53c67.11,0,133.55-14.47,194.08-43.42,55.26-26.32,105.26-65.79,142.11-115.13,42.1-56.59,63.81-124.34,63.81-194.74V80.16c0-30.92-30.91-51.32-59.21-40.13l-150,62.5c-9.87,3.95-21.05,4.61-30.92.66-48.68-19.08-102.63-28.95-159.87-28.95s-111.18,10.53-159.87,28.95c-9.87,3.95-21.05,3.29-30.92-.66L59.21,42.01C30.92,30.16,0,51.22,0,82.14v336.18c0,65.13,21.05,128.29,58.55,180.92,35.53,49.34,84.21,88.82,138.82,116.45Zm348.68-304.61c36.18,0,65.79,29.61,65.79,65.79s-29.61,65.79-65.79,65.79-65.79-29.61-65.79-65.79,29.61-65.79,65.79-65.79Zm-292.11,0c36.18,0,65.79,29.61,65.79,65.79s-29.61,65.79-65.79,65.79-65.79-29.61-65.79-65.79c0-36.84,29.61-65.79,65.79-65.79Z"/>
</svg>