<?xml version="1.0" encoding="utf-8"?>
<!-- Generator: Adobe Illustrator 28.0.0, SVG Export Plug-In . SVG Version: 6.00 Build 0)  -->
<svg version="1.1" id="Capa_1" xmlns="http://www.w3.org/2000/svg" xmlns:xlink="http://www.w3.org/1999/xlink" x="0px" y="0px"
	 viewBox="0 0 489.1 489.1" style="enable-background:new 0 0 489.1 489.1;" xml:space="preserve">
<style type="text/css">
	.st0{fill:#48610B;}
</style>
<g>
	<path class="st0" d="M488.9,349.5l-35.6-155.7c-0.1-0.3-0.2-0.6-0.3-0.9c-2.7-9.8-15.8-17.3-41.2-23.6c-4.8-25.4-27.2-44.7-54-44.7
		c-1.7,0-3.4,0.1-5.1,0.2c-9.3-18-28.2-29.7-48.9-29.7c-6.3,0-12.6,1.1-18.5,3.2c-8.8-13.7-24-22.2-40.8-22.2s-31.9,8.5-40.8,22.2
		c-5.9-2.1-12.2-3.2-18.5-3.2c-20.7,0-39.5,11.7-48.9,29.7c-1.7-0.2-3.4-0.2-5.1-0.2c-26.8,0-49.2,19.3-54,44.7
		c-26,6.4-39.1,14.1-41.4,24.2c0,0.1-0.1,0.2-0.1,0.4L0.2,349.5c-0.1,0.6-0.2,1.3-0.2,1.9c0,16.3,25.4,30.8,75.6,43.2
		c48.5,11.9,108.5,18.5,168.9,18.5c60.5,0,120.5-6.6,168.9-18.5c50.2-12.4,75.6-26.9,75.6-43.2C489.1,350.7,489,350.1,488.9,349.5z
		 M412.3,186.9c16.2,4.4,21.8,8.3,23.7,9.9c-2.1,1.9-9.3,6.7-31.5,11.9C408.5,202.2,411.2,194.8,412.3,186.9z M131.3,141.6
		c2.8,0,5.6,0.3,8.4,0.9c4.2,0.9,8.4-1.4,9.9-5.4c5.4-15,19.8-25.1,35.7-25.1c6.4,0,12.7,1.6,18.2,4.6c2.1,1.2,4.6,1.4,6.9,0.6
		c2.3-0.8,4.1-2.5,5-4.8c4.9-11.8,16.3-19.4,29.1-19.4c12.8,0,24.2,7.6,29.1,19.4c0.9,2.2,2.8,4,5,4.8c2.3,0.8,4.8,0.6,6.9-0.6
		c5.5-3,11.8-4.6,18.2-4.6c15.9,0,30.3,10.1,35.7,25.1c1.5,4,5.7,6.3,9.9,5.4c2.8-0.6,5.6-0.9,8.4-0.9c21,0,37.4,17.1,38,38
		c0.4,14.5-9.9,27.2-20,34.5c-36.2,5.4-82.7,8.4-131.2,8.4c-47.4,0-92.7-2.8-128.5-8c-13.4-6.2-22.7-20.2-22.7-34.9
		C93.3,158.6,110.4,141.6,131.3,141.6z M76.8,186.9c1.1,7.8,3.8,15.3,7.9,21.8c-22.3-5.2-29.5-10-31.6-11.9
		C55,195.2,60.6,191.3,76.8,186.9z M405.7,378.9c-46.5,11-103.8,17.1-161.1,17.1S130,390,83.4,378.9c-45.9-10.9-64-22.7-66.3-27.3
		l31.4-137.3c3.2,1.8,6.3,3,8,3.8c10.7,4.3,25.7,8.1,44.7,11.3c38.3,6.5,89.2,10.1,143.2,10.1s104.9-3.6,143.2-10.1
		c19-3.2,34.1-7.1,44.7-11.3c1.8-0.7,4.8-1.9,8.1-3.8l31.4,137.3C469.7,356.2,451.5,368.1,405.7,378.9z"/>
</g>
</svg>
