<svg xmlns="http://www.w3.org/2000/svg" width="256" height="256"><path fill="#1976D2" fill-opacity=".016" fill-rule="evenodd" d="M0 128.004v128.004l128.25-.254 128.25-.254.254-127.75L257.008 0H0zm.485.496c0 70.4.119 99.053.265 63.672.146-35.38.146-92.98 0-128C.604 29.153.485 58.1.485 128.5"/><path fill="#1976D2" fill-opacity=".115" fill-rule="evenodd" d="M102.834 1.567C90.892 3.727 76.839 9.593 66 16.941c-5.274 3.575-6.772 3.721-11.607 1.13-1.979-1.061-4.34-1.666-5.246-1.345C44.299 18.446 43.452 22 47.891 22c4.57 0 11.718 5.676 23.398 18.58 5.934 6.556 11.225 12.071 11.758 12.256 1.578.547-.661-4.355-5.082-11.128L73.912 35.5l3.794 4.405 6.407 7.438 2.613 3.034 4.42-1.689C93.578 47.76 96.314 47 97.226 47c.913 0 3.22-.921 5.127-2.046 2.2-1.298 4.889-1.962 7.356-1.816 2.138.126 4.489-.142 5.224-.597 2.032-1.256 16.397-.624 17.252.758.54.874 1.498.729 3.677-.558 3.713-2.194 8.99-2.233 12.049-.091 1.746 1.223 4.586 1.651 10.972 1.653 8.825.002 13.31 1.619 12.364 4.457-.228.682.074 1.24.67 1.24.595 0 1.088-.337 1.094-.75.005-.413 1.918-3.289 4.25-6.392 5.181-6.894 13.023-13.439 21.977-18.34l6.739-3.689 3.146 5.062c4.647 7.476 7.029 4.247 2.874-3.897-3.547-6.953-7.287-7.546-18.716-2.97-8.482 3.396-8.431 3.402-19.781-2.01-16.927-8.071-37.003-12.498-53.742-11.851-5.642.218-9.471.238-8.508.043.963-.194 1.75-.995 1.75-1.779C113 2.468 114.128 2 116.441 2c1.893 0 3.719-.45 4.059-1 .873-1.413-8.365-1.116-17.666.567m-63.369 21.5c-.872 1.687-1.44 3.822-1.263 4.745.243 1.261 1.023.76 3.146-2.024 2.603-3.412 2.857-5.788.619-5.788-.504 0-1.629 1.38-2.502 3.067M191.5 34.362c-8.797 4.121-18.261 13.978-21.96 22.872l-1.553 3.734 3.256 1.496c1.792.823 3.999 2.036 4.906 2.697 2.255 1.642 6.379-1.104 8.576-5.71.905-1.898 2.012-3.451 2.46-3.451.448 0 .815-.675.815-1.5 0-1.935-1.967-1.912-4.777.057-2.498 1.749-2.749 1.312-1.074-1.873 1.915-3.643 5.557-7.594 11.346-12.309 3.249-2.647 5.505-5.282 5.505-6.43 0-2.519-1.4-2.441-7.5.417m-159.534 8.56c-5.105 1.001-5.451 1.338-10.974 10.688-7.039 11.918-9.456 18.417-13.098 35.224-3.02 13.935-3.145 15.363-2.513 28.666.977 20.541 1.572 24.655 3.512 24.286 1.197-.227 1.894-2.342 2.731-8.295l1.124-7.991.126 7.357c.111 6.475.329 7.279 1.82 6.707 1.588-.609 1.588-.534.012 1.208-1.577 1.743-1.557 2.307.335 9.132C17.859 160.075 21.513 167 24.062 167c2.436 0 6.938-4.251 6.938-6.55 0-.903.909-2.918 2.02-4.478 1.706-2.396 1.876-3.481 1.091-6.975-.82-3.647-.585-4.794 1.979-9.669 4.96-9.429 3.701-10.823-5.772-6.39-3.639 1.703-6.779 2.934-6.978 2.736-.198-.199 1.472-1.187 3.711-2.197 4.494-2.027 5.274-3.12 7.901-11.083 1.776-5.384 1.774-5.442-.182-4.821-1.834.582-1.927.308-1.259-3.722.901-5.438 2.138-7.851 4.024-7.851.806 0 1.465-.45 1.465-1s-.45-1-1-1c-2.141 0-.849-4.052 1.953-6.123 2.471-1.827 2.781-2.506 1.898-4.155-.77-1.439-.702-2.632.251-4.412 1.053-1.969 1.06-2.592.034-3.226-.871-.538-1.384-4.374-1.63-12.185-.198-6.269-.66-16.011-1.027-21.649-.73-11.227-.333-10.734-7.513-9.328M116 46.378c0 .757-.675 1.937-1.5 2.622-1.229 1.02-1.5.951-1.5-.378 0-2.016-.458-2.023-3.468-.051-1.826 1.197-2.875 1.316-4.399.5-2.874-1.538-5.177-1.331-9.204.827-2.129 1.141-4.617 1.693-6.236 1.384-1.481-.283-2.693-.104-2.693.399 0 1.854 7.861 16.884 9.702 18.549 1.403 1.27 1.791 2.676 1.477 5.359l-.424 3.636-2.303-2.862c-2.895-3.599-5.131-2.278-3.482 2.058.574 1.511.8 3.142.501 3.625-1.145 1.854 4.758 11.06 11.149 17.388 5.846 5.789 6.876 7.382 8.303 12.838.895 3.425 2.028 6.228 2.516 6.228.489 0 1.663-2.25 2.61-5 1.308-3.801 1.894-4.58 2.443-3.25 2.214 5.366 5.508-3.827 5.508-15.37 0-2.483.886-6.195 2-8.38 1.1-2.158 2-4.658 2-5.556 0-1.835 3.037-4.944 4.829-4.944.658 0 1.171 1.444 1.171 3.294 0 2.453 1.006 4.373 3.938 7.518 2.166 2.323 4.231 5.146 4.589 6.275.625 1.966.71 1.975 2.067.232 1.34-1.723 1.543-1.664 3.859 1.133 2.408 2.908 2.474 2.924 4.519 1.074 1.141-1.033 2.762-4.242 3.602-7.131.84-2.889 2.404-6.369 3.476-7.732 3.285-4.176 2.336-6.193-1.369-2.913-1.944 1.721-1.965 1.675-1.279-2.739.384-2.469 1.527-5.394 2.539-6.5 2.814-3.072 8.262-14.54 7.657-16.115-.294-.768-1.209-1.396-2.031-1.396-.823 0-1.975-.894-2.559-1.986-.89-1.662-1.913-1.935-6.286-1.675-4.87.289-5.229.488-5.322 2.953-.106 2.783-1.966 5.708-3.631 5.708-.546 0-.713-1.089-.374-2.439.628-2.502-.759-4.399-1.885-2.577-1.369 2.215-6.332 1.075-8.486-1.95-1.812-2.544-2.568-2.881-5.318-2.368-1.763.329-3.634.989-4.156 1.466-1.555 1.421-4.118.996-6.823-1.132-2.941-2.313-5.727-2.616-5.727-.622m-45.75 7.363c-2.471.842-1.167 4.433 3.372 9.286l4.622 4.942 2.923-1.727c2.746-1.622 3.101-1.625 5.856-.044 3.842 2.206 4.411.98 2.074-4.471-1.808-4.219-2.122-4.454-5.935-4.454-2.214 0-5.744-.891-7.844-1.979-2.1-1.089-4.38-1.788-5.068-1.553m143.136 4.887c-1.869 4.48-8.386 12.155-8.386 9.875 0-1.962-2.436-1.924-4.429.068-1.993 1.994-2.009 4.389-.037 5.831 2.276 1.664-.304 4.717-4.388 5.193-5.99.697-9.326 3.794-5.396 5.009 4.176 1.29 4.75 2.131 4.75 6.964 0 4.235.34 5.015 2.775 6.379 2.461 1.377 2.887 1.383 3.76.053.542-.825.731-2.576.42-3.892-.518-2.197-.349-2.136 2.079.75 2.703 3.212 5.967 4.131 6.719 1.892.231-.687.738 3.475 1.126 9.25.99 14.736 2.419 22.97 4.642 26.75 1.051 1.787 1.477 3.25.945 3.25-.531 0-.966.675-.966 1.5s-.486 1.5-1.079 1.5c-1.087 0-.808 2.377 1.201 10.256.83 3.251 1.759 4.16 6.918 6.764 7.055 3.562 7.886 4.734 1.377 1.944-2.521-1.08-5.046-1.964-5.611-1.964-1.354 0-.119 6.785 1.768 9.715 1.811 2.813 1.796 3.364-.074 2.647-1.093-.42-1.5.119-1.5 1.983 0 1.913 1.153 3.352 4.57 5.703 2.514 1.73 4.325 3.391 4.024 3.691-.3.3-1.251-.039-2.112-.754-2.255-1.872-4.042.101-2.575 2.842.601 1.123 1.093 2.789 1.093 3.702 0 2.872-9.162 15.509-17.954 24.763-9.71 10.22-17.362 15.98-28.903 21.757-9.358 4.683-11.322 7.012-7.924 9.392 3.426 2.4 7.179 1.886 15.056-2.061 17.957-8.999 32.08-20.413 42.709-34.519 9.072-12.04 12.859-19.65 17.074-34.313 6.341-22.059 7.237-28.57 6.681-48.548-.424-15.216-.837-18.67-3.17-26.463-3.324-11.102-7.853-19.808-15.366-29.537-4.203-5.443-6.424-7.507-8.096-7.524-1.267-.014-2.952-.912-3.745-1.996-1.198-1.638-1.59-1.729-2.325-.539-.733 1.185-1.155 1.206-2.461.122-1.365-1.133-1.792-.79-3.19 2.565M56.552 81.916C55.484 83.645 57.892 88 59.916 88c3.079 0 3.505-1.923 1.014-4.574-2.445-2.603-3.482-2.961-4.378-1.51m17.752 17.426c-5.608 2.849-11.611 6.525-13.341 8.169-3.089 2.935-12.172 20.415-13.56 26.097-.389 1.59-1.764 4.164-3.055 5.719-1.291 1.554-2.348 3.467-2.348 4.25 0 .783-.537 1.311-1.194 1.173-1.371-.287-2.516 3.902-2.688 9.833-.139 4.81.48 5.703 3.013 4.347 1.448-.775 1.869-.654 1.869.535 0 2.177 1.733 1.902 3.007-.478.835-1.56 1.485-1.794 2.892-1.041 1.147.614 3.064.629 5.208.04 1.866-.513 7.928-1.564 13.472-2.337C78.798 154.086 87 151.045 87 148.448c0-1.286-.582-1.519-2.552-1.024-2.317.581-2.453.454-1.472-1.38.595-1.111 2.216-2.305 3.603-2.653 3.428-.861 2.733-3.643-1.106-4.428-1.658-.339-4.244-1.422-5.746-2.406-1.579-1.035-3.785-1.588-5.229-1.312-2.561.49-3.492-.684-1.248-1.573.69-.274-.207-1.082-2-1.803-1.787-.719-3.25-1.67-3.25-2.113 0-1.167 4.65-2.756 8.065-2.756 3.473 0 3.703-.995.831-3.595-1.62-1.466-3.52-1.884-8.25-1.812-3.381.051-7.271.467-8.646.923-2.268.754-2.371.673-1.106-.868.766-.934 4.066-4.015 7.334-6.846 4.637-4.016 6.12-4.834 6.754-3.724C79.014 121.625 82.574 124 92.351 124c7.073 0 15.427-2.246 17.31-4.654 1.846-2.361-2.175-12.863-6.877-17.965-3.991-4.329-10.722-7.457-15.712-7.3-1.415.044-7.16 2.411-12.768 5.261m87.752-1.781c-8.767 2.411-14.508 7.799-17.577 16.499-2.059 5.834-1.947 9.928.271 9.984.963.024 5.125.447 9.25.94 10.414 1.246 13.6.204 19.823-6.483 5.532-5.943 7.561-6.569 12.273-3.785 3.399 2.008 3.633 2.918.966 3.764-2.914.925-8.062 7.268-8.062 9.932 0 1.289-.718 2.939-1.596 3.667-1.165.967-1.437 2.315-1.007 4.999.549 3.44.401 3.712-2.323 4.257-2.831.566-10.074 6.076-10.074 7.663 0 .435 1.463.464 3.25.063s8.2-.731 14.25-.735c6.05-.004 8.3.135 5 .307-12.572.658-27.5 4.133-27.5 6.402 0 1.008 3.798 1.935 8 1.953 5.444.024 24.674 3.917 32.768 6.634 4.017 1.348 7.798 2.146 8.401 1.773.723-.446.914-3.356.56-8.52-.524-7.647-.487-7.816 1.494-6.756 2.852 1.526 3.644-.184 3.348-7.228-.262-6.248-1.477-8.53-4.894-9.195-1.487-.289-1.147-.467 1.073-.56 2.31-.097 3.295-.642 3.406-1.886.454-5.109-1.682-14.25-3.33-14.25-.603 0-2.139-1.125-3.414-2.5-1.274-1.375-3.193-2.5-4.265-2.5-1.072 0-4.356-1.121-7.298-2.49-2.942-1.37-6.572-2.495-8.068-2.5-1.952-.007-2.563-.416-2.166-1.449.307-.801-.312-1.98-1.397-2.657-1.133-.708-1.758-1.946-1.494-2.958.375-1.432-.403-1.831-4.384-2.248-2.662-.279-5.965-.76-7.34-1.07-1.375-.31-4.95.11-7.944.933m-104.215 4.888c-.927 2.034-.915 2.873.053 3.828.98.966 1.548.807 2.702-.758.804-1.089 1.336-2.627 1.183-3.417-.492-2.535-2.714-2.34-3.938.347m149.334 2.301c-.922 2.979-.892 3.956.144 4.75.718.55 1.629 1.863 2.026 2.917.509 1.353 1.033 1.605 1.783.855 1.126-1.126-.798-12.272-2.119-12.272-.371 0-1.196 1.688-1.834 3.75m-116.571-1.16c-.862 2.245.128 3.41 2.896 3.41 2.947 0 4.067-1.612 2.464-3.544-1.602-1.93-4.597-1.855-5.36.134m69.759 1.907c-.346.901-.167 2.099.398 2.664 1.63 1.63 4.739.531 4.739-1.675 0-2.543-4.228-3.358-5.137-.989M97.5 118.147c-1.65 1.013-4.8 1.852-7 1.863-2.952.015-3.607.275-2.5.99 2.472 1.597 8.607 1.139 11.031-.824 3.276-2.653 2.075-4.244-1.531-2.029m52.631.944c2.269 3.446 8.088 5.196 12.935 3.891 5.871-1.581 6.025-3.196.231-2.427-4.647.616-5.914.303-13.775-3.412-.537-.254-.264.623.609 1.948m-34.881 21.475c-2.338 1.401-4.25 2.924-4.25 3.385 0 1.085 4.96 6.048 8.307 8.314 3.092 2.092 4.486 7.7 2.821 11.353-1.143 2.508-11.915 8.38-15.378 8.381-.963.001-1.75.676-1.75 1.501 0 2.555 9.194 1.942 15-1 6.121-3.102 6.452-3.098 13.541.148 6.111 2.797 10.668 3.254 13.017 1.304 2.003-1.662.842-2.952-2.657-2.952-3.507 0-9.616-2.92-12.286-5.871-3.365-3.721-1.663-8.77 4.952-14.687 5.701-5.101 6.699-7.855 3.433-9.469-6.407-3.166-7.011-3.305-9.25-2.125-1.621.855-3.226.902-5.743.169-4.741-1.38-4.916-1.352-9.757 1.549M9.033 145.75c.019 1.512.878 3.762 1.911 5 3.227 3.869 3.846 2.633 2.003-4-1.235-4.45-3.964-5.147-3.914-1M195 149.383c0 .211 1.125.599 2.5.862s2.5.09 2.5-.384c0-.473-1.125-.861-2.5-.861s-2.5.173-2.5.383m15.46 4.867c-.262.688.094 4.395.792 8.238.948 5.22 1.71 7.074 3.012 7.324.958.185 1.897-.26 2.087-.988.19-.728.863-2.887 1.495-4.798 1.05-3.175.934-3.675-1.348-5.791-1.374-1.274-2.498-2.973-2.498-3.775 0-1.781-2.875-1.951-3.54-.21M75.5 156.025c-9.983 1.075-17.749 2.634-22.034 4.425-3.05 1.274-3.498 1.806-2.519 2.986.857 1.033.897 1.987.143 3.395-1.698 3.174.877 4.495 7.13 3.657 8.066-1.081 28.246-8.29 30.791-11 4.15-4.417 1.547-5.084-13.511-3.463m84.157 3.651c-1.653 1.653.027 2.653 21.498 12.811 16.738 7.917 21.845 7.511 21.845-1.736 0-2.869-.522-3.629-3.449-5.025-5.087-2.426-14.113-4.558-22.051-5.208-3.85-.316-9.292-.782-12.093-1.036-2.801-.255-5.389-.167-5.75.194m71.343.754c0 .275.9.981 2 1.57 1.1.589 2 .845 2 .57s-.9-.981-2-1.57c-1.1-.589-2-.845-2-.57M6.033 166.601C5.971 168.646 8.189 174 9.098 174c1.602 0 .958-3.711-1.065-6.139-1.081-1.299-1.981-1.866-2-1.26m20.467.567c-2.377 1.316-7.5 6.616-7.5 7.759 0 .442.914 1.965 2.031 3.386l2.032 2.582 3.468-2.046c2.802-1.653 3.469-2.658 3.469-5.225 0-1.749.701-4.179 1.557-5.401 1.474-2.106 1.435-2.221-.75-2.193-1.269.017-3.207.529-4.307 1.138m48.193.804c-7.646 2.987-7.895 3.414-5.013 8.572 1.37 2.451 2.74 4.456 3.045 4.456C74.388 181 86 169.554 86 167.915c0-2.532-4.742-2.508-11.307.057m87.311.37c.002.637 2.743 3.372 6.091 6.078 3.349 2.707 8.591 7.544 11.649 10.75 3.058 3.207 6.119 5.83 6.801 5.83 2.912 0 3.474-9.778.705-12.255-5.416-4.843-25.255-13.018-25.246-10.403m44.162 2.797c.184 1.298.784 2.248 1.334 2.111 1.476-.369 1.216-3.511-.334-4.028-.915-.305-1.229.298-1 1.917m-121.733 2.255c-8.437 5.682-13.4 12.865-13.427 19.435C70.997 194.809 81.057 206 82.845 206c.85 0 2.787-1.19 4.305-2.644l2.759-2.643 3.559 3.125c1.957 1.718 4.903 3.82 6.545 4.669 1.643.849 3.021 1.87 3.064 2.269.201 1.905.807 4.424 1.098 4.566 3.321 1.618 4.404 2.886 4.825 5.645.287 1.882 1.448 3.908 2.724 4.752 2.058 1.361 2.294 1.295 3.169-.884.519-1.295 1.751-5.349 2.736-9.009 1.545-5.74 1.966-6.427 3.062-5 1.118 1.454 1.392 1.473 2.275.154.775-1.159 1.007-.77 1.019 1.711.008 1.765.712 3.79 1.563 4.5 2.208 1.839 3.195 2.917 5.594 6.114 1.166 1.553 3.294 3.27 4.727 3.815 2.158.821 2.897.632 4.296-1.096 1-1.235 1.948-1.67 2.322-1.065 1.655 2.677 9.513.046 9.513-3.186 0-.585 1.125-2.106 2.5-3.381 1.375-1.274 2.5-3.183 2.5-4.242 0-2.03 2.196-4.425 3.645-3.974.47.147 3.014-.788 5.652-2.077 3.706-1.81 4.931-3.009 5.383-5.267.557-2.787.671-2.844 2.458-1.227 1.031.933 1.984 1.511 2.118 1.286 3.901-6.567 5.656-11.206 4.827-12.756-1.046-1.954-6.953-7.531-14.334-13.534-3.919-3.187-5.012-3.647-6.241-2.628-.877.729-1.266 2.125-.945 3.401.447 1.78-.098 2.398-3.058 3.468-2.977 1.077-3.882 1.071-5.216-.03-1.338-1.104-1.69-1.105-2.06-.007-.966 2.872-7.383 8.261-9.164 7.696-1.013-.322-2.361.13-3.121 1.047-1.226 1.477-1.448 1.463-2.64-.166-1.218-1.667-1.505-1.594-4.536 1.159-1.78 1.617-3.574 3.389-3.987 3.939-.491.654-.756.633-.766-.061-.008-.584-.966-2.083-2.128-3.33-1.517-1.628-2.788-2.1-4.5-1.67-1.926.483-2.387.209-2.387-1.42 0-2.481-2.53-2.655-3.92-.269-.868 1.49-1.024 1.332-1.05-1.059-.016-1.545-.462-2.542-.989-2.216-.528.326-1.888.015-3.023-.691-1.578-.982-1.921-1.93-1.461-4.034.76-3.47-1.711-3.796-4-.527L100 181.445v-2.592c0-3.775-5.632-4.592-10.768-1.562l-3.691 2.177 2.729-3.578c2.682-3.515 3.474-5.89 1.967-5.89-.42 0-3.032 1.527-5.804 3.394M10 177.018c0 3.631 10.111 22.304 16.504 30.482 16.365 20.93 28.664 31.349 45.651 38.673 19.331 8.334 44.514 11.825 62.763 8.7 7.869-1.348 11.715-3.14 12.579-5.862.478-1.507 1.51-2.011 4.12-2.011 1.915 0 4.922-.787 6.683-1.75l3.2-1.75-4.975-.314c-2.736-.173-5.457-.715-6.048-1.205-.591-.49-13.202-.811-28.026-.712-31.072.207-33.879-.274-53.166-9.11-5.932-2.717-11.963-5.209-13.404-5.536-5.987-1.361-34.418-32.782-40.386-44.634-3.518-6.985-5.495-8.774-5.495-4.971"/><path fill="#1976D2" fill-opacity=".302" fill-rule="evenodd" d="M107.061 1.087C94.335 2.734 77.865 9.181 66.623 16.916c-5.13 3.529-7.137 3.76-12.099 1.394-2.666-1.271-4.221-1.451-6.283-.726-3.927 1.381-3.48 3.762.838 4.464 4.926.801 11.782 5.972 19.054 14.374C78.39 48.271 82.155 52.178 82.747 51.587c.506-.507-1.907-4.827-7.17-12.837-3.566-5.427.152-2.617 4.961 3.75 5.285 6.996 6.639 7.548 12.59 5.13 1.855-.754 3.912-1.174 4.572-.933.66.24 2.526-.544 4.147-1.742 2.039-1.507 4.748-2.281 8.799-2.513 17.467-1 20.506-.964 21.516.253.827.997 1.62.952 3.889-.221 3.704-1.916 9.399-1.88 12.387.077 1.661 1.089 5.029 1.576 11.289 1.636 8.682.081 11.484.906 12.388 3.646.256.775 1.807-.775 3.704-3.703 1.795-2.77 5.832-7.291 8.972-10.046 6.59-5.783 19.593-13.534 21.486-12.808.71.272 2.175 2.341 3.256 4.598 1.082 2.257 2.53 4.108 3.217 4.115 3.515.032-1.391-11.184-5.667-12.955-3.227-1.336-8.872-.203-15.288 3.07-5.187 2.647-7.854 2.393-15.57-1.478C155.159 8.056 131.892 3.753 109 6.193l-6.5.693 4.919-1.193c2.705-.656 5.105-1.755 5.333-2.443.228-.688 1.701-1.25 3.272-1.25 1.572 0 3.136-.45 3.476-1 .714-1.155-3.045-1.129-12.439.087M40.203 22.256c-.573.69-1.348 2.603-1.721 4.25l-.679 2.994 2.562-3c2.585-3.026 3.376-5.5 1.757-5.5-.482 0-1.346.565-1.919 1.256M192.18 34.508C180.173 40.071 163.181 62 170.878 62c1.032 0 2.437.675 3.122 1.5s2.236 1.5 3.448 1.5c2.236 0 6.552-3.749 6.552-5.692 0-.585.675-1.623 1.5-2.308.825-.685 1.5-1.917 1.5-2.737 0-1.272-.384-1.242-2.587.202-1.422.932-2.814 1.468-3.091 1.19-1.436-1.436 1.796-5.991 9.507-13.4 9.649-9.271 10.089-11.796 1.351-7.747M35.139 42.894c-.748.473-2.115.664-3.037.422-.922-.241-2.854.488-4.292 1.619C24.959 47.177 17.388 59.54 13.99 67.5c-1.949 4.566-6.751 23.998-8.444 34.168-.863 5.185 1.224 38.492 2.491 39.765 1.556 1.563 2.134.04 3.466-9.128l1.278-8.805.109 7.75c.061 4.262.504 7.75.985 7.75s4.242-1.534 8.356-3.409C29.809 132.137 34 128.3 34 124.815c0-1.053.708-3.283 1.572-4.955 1.523-2.945 1.507-3.02-.5-2.383-1.69.537-2.071.231-2.066-1.66.003-1.274.474-4.004 1.047-6.067.782-2.818 1.565-3.75 3.149-3.75 2.014 0 2.031-.085.373-1.917-2.054-2.27-.849-5.544 2.424-6.583 2.267-.719 2.472-1.751.921-4.649-.836-1.563-.718-2.417.526-3.791 1.442-1.594 1.449-1.902.064-3.052-1.279-1.061-1.433-2.924-.906-10.987.471-7.207.291-10.328-.698-12.114-.806-1.458-1.365-5.931-1.418-11.34-.085-8.817-.682-10.361-3.349-8.673m81.498 3.602c.689 1.797-2.576 4.221-3.554 2.639-.598-.968-1.333-.978-3.379-.046-2.041.93-3.277.916-5.637-.061-2.643-1.095-3.546-.98-7.174.911-2.853 1.487-5.048 1.966-7.022 1.533-1.579-.347-2.871-.406-2.871-.131 0 1.476 7.651 15.529 9.629 17.686 1.911 2.083 2.207 3.21 1.686 6.42l-.632 3.893-2.294-2.876c-2.021-2.535-2.374-2.666-2.973-1.107-.373.974-.193 2.837.401 4.141.787 1.727.774 2.472-.05 2.746-2.515.839 7.866 15.504 13.661 19.3 2.684 1.759 5.125 6.283 6.603 12.236 1.214 4.892 2.449 4.806 3.394-.234.792-4.221 2.274-5.34 3.981-3.006 1.2 1.641 1.314 1.633 2.009-.15.405-1.039 1.076-6.224 1.492-11.521.556-7.087 1.328-10.603 2.924-13.308 1.193-2.021 2.169-4.48 2.169-5.463 0-1.897 2.952-5.098 4.701-5.098.574 0 1.337 1.833 1.695 4.074.435 2.718 1.799 5.255 4.1 7.625 1.897 1.953 3.727 4.427 4.067 5.499.584 1.842.721 1.855 2.5.245 1.793-1.622 1.965-1.556 3.659 1.421.978 1.718 2.105 3.126 2.505 3.13 1.243.01 3.876-4.687 5.324-9.497.761-2.529 2.305-5.77 3.431-7.201 2.402-3.053 2.05-3.957-.839-2.153-1.129.705-2.327 1.006-2.663.67-.954-.954 1.321-8.289 3.39-10.932 2.965-3.788 8.257-14.867 7.605-15.921-.326-.528-1.216-.96-1.977-.96-.762 0-2.007-.889-2.769-1.976-1.26-1.8-4.951-2.135-6.496-.591-.273.273-1.337.047-2.364-.503-1.83-.979-2.444-.175-1.923 2.515.295 1.516-2.095 5.398-3.702 6.015-1.151.441-1.378-.097-1.033-2.447.453-3.081-.852-3.972-2.866-1.958-1.637 1.637-6.378-.034-7.579-2.67-.883-1.937-1.77-2.331-4.963-2.206-2.139.084-4.23.761-4.646 1.504-.6 1.072-1.42 1.121-3.957.237-1.76-.614-3.2-1.469-3.2-1.901 0-.432-1.084-.993-2.409-1.246-1.584-.303-2.253-.056-1.954.723m-47.124 8.483c-.873 1.413.757 3.967 5.406 8.472 3.175 3.077 4.344 3.686 5.28 2.75 1.475-1.475 5.271-1.555 7.867-.166 2.333 1.249 2.417.366.421-4.413C87.126 58.366 86.591 58 83.198 58c-2.076 0-5.54-.9-7.698-2-4.459-2.273-5.141-2.39-5.987-1.021m149.519.79c-.021.833-.848 1.064-2.404.674-1.965-.494-2.489-.133-3.049 2.098-.372 1.482-2.324 4.666-4.338 7.076-2.916 3.488-3.834 4.075-4.502 2.882-1.214-2.17-2.461-1.853-4.41 1.122-1.63 2.487-1.626 2.689.067 3.927 2.49 1.82 1.204 5.3-2.213 5.987-8.367 1.681-10.174 3.575-5.098 5.345 3.051 1.063 3.157 1.284 2.673 5.574-.382 3.394-.095 4.836 1.198 6.006 3.086 2.793 5.04 1.944 5.084-2.21l.04-3.75 1.479 2.725c2.107 3.883 5.428 5.513 6.961 3.417 1.583-2.165 2.506-1.022 1.845 2.284-.74 3.701 2.397 28.568 4.126 32.706.774 1.852 1.966 3.368 2.649 3.368.725 0 .513.533-.508 1.28-1.457 1.065-1.568 1.758-.663 4.138.598 1.573.849 3.097.559 3.387-.29.291-.528.089-.528-.447 0-.537-.641-1.849-1.425-2.917-1.239-1.689-1.255-1.129-.124 4.307 1.552 7.455 2.36 8.55 8.655 11.711 4.482 2.252 13.647 8.19 11.394 7.383-.55-.197-4.251-2.042-8.225-4.1-3.974-2.058-7.461-3.742-7.75-3.742-1.169 0-.425 6.75.943 8.559 1.918 2.535 1.934 4.533.032 3.803-1.091-.419-1.5.117-1.5 1.965 0 1.865 1.109 3.289 4.173 5.357 4.589 3.096 6.793 6.439 2.857 4.332-2.906-1.555-3.684-.586-2.355 2.934 1.263 3.346-.529 7.116-7.987 16.802-11.589 15.05-23.604 25.245-38.4 32.583-10.437 5.177-12.196 8.841-4.901 10.21 2.71.508 5.126-.29 13.215-4.368 23.379-11.788 41.171-28.975 51.421-49.677 4.543-9.175 10.337-28.607 12.493-41.899 3.039-18.739 1.412-41.243-4.104-56.763-3.23-9.089-6.206-14.359-13.181-23.338-5.799-7.466-7.725-9.127-8.719-7.52-.349.566-1.676-.194-3.035-1.737-1.327-1.509-2.428-2.172-2.445-1.474M57.184 84.75C57.567 88.083 62 89.481 62 86.27c0-2.196-1.829-4.27-3.766-4.27-.901 0-1.259.937-1.05 2.75M83.5 95.306c-8.839 3.517-20.778 10.232-23.143 13.017C57.154 112.095 47 132.996 47 135.818c0 1.082-.63 2.21-1.399 2.505-.77.295-1.931 2.148-2.581 4.116-.65 1.969-1.572 3.338-2.05 3.042-1.135-.701-2.547 7.119-2.128 11.788.12 1.349.73 1.625 2.568 1.164 1.817-.456 2.517-.153 2.843 1.231.353 1.499.648 1.311 1.606-1.023.94-2.289 1.452-2.628 2.569-1.701 1.062.882 3.383.796 9.733-.361 4.587-.836 10.781-1.779 13.765-2.097 6.307-.671 15.321-4.255 14.768-5.871-.209-.611-1.351-.97-2.537-.798-3.3.479-2.568-1.638 1.37-3.962 2.815-1.66 3.295-2.36 2.378-3.466-.633-.762-1.984-1.385-3.003-1.385-1.02 0-3.29-.874-5.046-1.941-2.101-1.278-4.16-1.748-6.024-1.375-2.804.56-4.09-1.05-1.582-1.981.703-.261.046-.944-1.5-1.559-4.839-1.926-3.261-3.685 5.25-5.85l3.5-.891-2.818-1.861c-3.689-2.436-12.383-2.931-15.539-.884-1.532.993-2.698 1.187-3.332.553-.634-.634 1.569-3.118 6.292-7.093 3.998-3.365 7.625-6.118 8.062-6.118.437 0 1.684 1.743 2.771 3.874 2.791 5.471 7.246 8.881 12.665 9.693 9.71 1.457 21.585-1.867 22.205-6.215.471-3.306-5.09-14.572-8.687-17.598-1.768-1.488-5.524-3.391-8.348-4.229-5.953-1.768-5.408-1.755-9.271-.219m76.248 3.08c-8.646 3.18-15.444 12.157-16.001 21.13l-.247 3.984 9.627.889c5.295.489 10.92.571 12.5.182 1.596-.393 5.183-3.178 8.07-6.264 5.66-6.053 8.108-6.792 12.647-3.817 3.307 2.167 3.317 2.818.072 4.555-3.251 1.74-6.516 6.258-6.873 9.51-.15 1.369-1.101 3.404-2.114 4.523-1.514 1.673-1.627 2.376-.635 3.964 1.68 2.689 1.505 3.957-.544 3.962-1.758.003-5.817 2.312-9.996 5.684-2.189 1.766-1.803 1.812 15.197 1.812 13.575 0 17.733.307 18.746 1.386 1.096 1.166.906 1.283-1.197.738-6.887-1.787-18.014-1.857-25.65-.163-9.363 2.077-13.35 3.469-13.35 4.66 0 .484 1.238.928 2.75.989 5.441.217 8.943.748 21.25 3.224 6.875 1.383 14.469 3.223 16.876 4.09 7.212 2.598 7.283 2.539 7.035-5.937-.238-8.151.214-9.458 2.589-7.487 2.316 1.922 2.773.751 2.622-6.713-.146-7.174-1.393-9.287-5.48-9.287-1.086 0-1.635-.338-1.22-.75.416-.412 1.943-.75 3.395-.75 3.102 0 3.678-1.717 2.719-8.11-.734-4.894-5.95-11.387-9.154-11.394-1.035-.002-4.096-1.127-6.801-2.5-2.706-1.373-6.644-2.496-8.75-2.496-3.384 0-3.831-.282-3.831-2.417 0-1.329-.561-2.603-1.246-2.832-.685-.228-1.247-1.278-1.25-2.333-.003-1.477-.809-1.975-3.504-2.168a591.884 591.884 0 0 1-9-.747c-3.404-.308-6.93.029-9.252.883m-101.79 3.692c-1.212 2.265-.649 4.922 1.043 4.922 1.315 0 2.907-4.05 2.261-5.75-.706-1.855-2.048-1.519-3.304.828m32.404 1.422c-.876 2.281.349 4.5 2.484 4.5 2.426 0 4.554-2.515 3.797-4.487-.751-1.957-5.532-1.967-6.281-.013m117.021 2.034c-.846 2.702-.805 3.466.183 3.466.697 0 1.759 1.237 2.359 2.75.937 2.357 1.024 1.975.61-2.673-.601-6.766-1.742-8.048-3.152-3.543m-46.674-.91c-.39.39-.709 1.564-.709 2.609 0 1.483.604 1.83 2.75 1.583 1.978-.227 2.75-.878 2.75-2.316 0-2.009-3.347-3.319-4.791-1.876m-63.693 13.492c-1.917 1.036-5.067 1.891-7 1.899-2.638.012-3.142.258-2.016.985 2.472 1.597 8.607 1.139 11.031-.824 3.466-2.807 2.048-4.256-2.015-2.06m51.984-.29c0 .454 1.161 1.916 2.581 3.25 3.35 3.147 12.318 3.489 15.133.577 1.731-1.79 1.631-1.827-3.214-1.208-3.955.505-5.828.211-8.961-1.403-4.305-2.219-5.539-2.49-5.539-1.216M25.969 135.295c-9.362 4.291-11.53 5.685-11.803 7.59-.506 3.538 4.557 18.686 7.299 21.836 2.313 2.658 2.539 2.713 5.201 1.255 1.728-.946 3.172-2.869 3.809-5.07.564-1.951 1.854-4.8 2.868-6.333 1.333-2.016 1.541-3.089.75-3.88-1.861-1.861-1.222-5.685 2.065-12.362 1.968-3.998 2.804-6.769 2.219-7.354s-5.261 1.043-12.408 4.318m89.722 5.246c-4.674 3.205-4.489 4.922.963 8.921 4.759 3.491 6.346 6.241 6.346 10.996 0 4.986-5.243 8.774-16.813 12.145-2.724.794.101 2.397 4.223 2.397 2.658 0 6.083-.952 8.994-2.5 5.848-3.109 7.814-3.113 14.096-.022 6.758 3.324 13.5 3.282 13.5-.085 0-.947-1.219-1.393-3.804-1.393-2.503 0-5.411-1.019-8.5-2.978-4.162-2.639-4.696-3.384-4.696-6.55 0-4.662 2.351-9.085 5.769-10.853 1.505-.778 3.594-2.362 4.642-3.521 1.6-1.767 1.72-2.514.749-4.646-.637-1.397-1.72-2.426-2.409-2.286-.688.139-2.263-.307-3.501-.991-1.703-.943-2.764-.97-4.365-.114-2.001 1.071-4.864.918-9.385-.502-1.302-.409-3.329.282-5.809 1.982M9 145.592c0 .876.9 2.737 2 4.135 1.723 2.19 1.998 2.281 1.986.658-.025-3.482-1.208-6.385-2.603-6.385-.76 0-1.383.717-1.383 1.592m201.671 8.158c-.75 1.259 1.752 14.089 2.986 15.315 1.421 1.411 2.843-.884 3.839-6.194.525-2.794.319-3.728-.926-4.206-.88-.337-2.032-1.75-2.56-3.139-.939-2.471-2.447-3.273-3.339-1.776M68 157.53c-4.675.735-10.238 1.929-12.363 2.653-3.571 1.217-3.885 1.633-4.162 5.494-.361 5.038.443 5.488 7.669 4.294C71.76 167.885 90 160.115 90 156.826c0-1.22-12.26-.827-22 .704m92 3.17c0 1.511 29.056 15.495 34.833 16.763 3.869.85 6.753-.678 7.592-4.022 1.401-5.58-1.068-7.48-14.117-10.861-7.288-1.889-28.308-3.285-28.308-1.88m-132.274 6.306c-1.526.459-4.147 2.304-5.826 4.101-2.615 2.8-2.899 3.601-1.984 5.608 1.525 3.347 3.59 3.773 6.895 1.419 2.087-1.485 2.907-2.929 2.973-5.23.049-1.748.568-3.656 1.153-4.241 1.229-1.229 1.408-2.703.313-2.577-.413.047-1.998.461-3.524.92m48.656.961c-2.815 1.002-6.051 2.32-7.19 2.93-2.063 1.104-2.061 1.123.546 5.106 1.44 2.198 3.032 3.997 3.539 3.997.507 0 3.646-2.632 6.974-5.85 8.194-7.919 6.885-10.009-3.869-6.183m-69.352.592c-.016 1.132.668 2.932 1.522 4 1.491 1.865 1.525 1.843.879-.559-.37-1.375-1.055-3.175-1.522-4-.677-1.198-.854-1.085-.879.559m159.987 4.166c3.016 2.599 8.485 7.822 12.153 11.608 3.669 3.786 7.157 6.583 7.75 6.216 1.824-1.127 1.317-10.03-.67-11.777-4.508-3.963-19.396-10.713-23.733-10.761-.54-.006 1.485 2.115 4.5 4.714m-82.04.866c-7.639 5.009-9.003 6.35-11.096 10.909-1.983 4.319-2.521 11.5-.86 11.5.561 0 2.448 2.025 4.192 4.5 3.713 5.268 6.183 5.721 10.658 1.955l3.024-2.545 1.642 2.506c.903 1.378 2.504 2.78 3.558 3.114 3.077.977 7.905 5.495 7.905 7.398 0 .963 1.125 2.264 2.5 2.89 1.82.829 2.5 1.918 2.5 4.006 0 3.116 3.501 7.147 4.866 5.602.45-.509 1.626-4.076 2.615-7.926 2.435-9.486 3.127-10.678 4.354-7.5.865 2.241 1.041 2.31 1.704.666.971-2.407 2.424-.299 2.446 3.549.009 1.638.773 3.12 1.926 3.737 1.05.563 2.888 2.604 4.082 4.537 2.762 4.469 6.67 5.646 9.037 2.723 1.141-1.41 2.021-1.761 2.704-1.078.556.556 2.528.866 4.381.689 2.444-.234 3.464-.872 3.717-2.323.191-1.1 1.279-2.731 2.417-3.624 1.138-.893 2.56-3.127 3.16-4.963.825-2.525 1.822-3.494 4.091-3.976 5.416-1.151 10.207-4.722 10.886-8.116.61-3.052.669-3.081 2.625-1.311 1.101.996 2.111 1.626 2.245 1.401 1.623-2.733 4.749-9.667 4.747-10.531-.002-.616-2.591-3.706-5.753-6.866-9.402-9.395-16.347-12.816-14.917-7.347.677 2.586-5.553 5.815-8.108 4.203-1.36-.858-2.524-.136-6.309 3.917-2.954 3.163-4.896 4.555-5.344 3.83-.508-.822-1.291-.727-2.819.344-1.583 1.108-2.456 1.2-3.462.365-1.035-.858-2.255-.386-5.276 2.042-3.797 3.051-3.967 3.091-4.996 1.168-1.595-2.981-4.823-4.444-6.583-2.983-1.169.97-1.436.808-1.436-.872 0-2.908-2.051-3.831-3.652-1.643-1.276 1.746-1.348 1.723-1.348-.43 0-1.311-.503-2.107-1.187-1.879-1.855.618-5.061-3.174-4.499-5.32.715-2.735-.748-3.192-2.835-.885-2.381 2.63-3.827 2.504-3.136-.274.505-2.031.164-2.273-3.503-2.485-2.809-.163-4.84.377-6.586 1.75-4.538 3.569-5.743 2.269-1.87-2.018 3.028-3.351 4.503-5.997 3.343-5.997-.15 0-2.737 1.616-5.75 3.591M206 171.5c0 .825.45 1.5 1 1.5s1-.675 1-1.5-.45-1.5-1-1.5-1 .675-1 1.5m-196 5.528c0 2.24 10.063 21.772 13.668 26.529 7.949 10.49 21.859 25.732 27.313 29.928 15.962 12.283 35.223 19.379 58.551 21.571 18.741 1.761 32.821-.31 37.159-5.466 1.756-2.086 3.313-2.971 4.871-2.766 1.259.165 3.962-.558 6.007-1.607l3.716-1.907-7.892-.835c-8.003-.846-17.04-.948-41.393-.466-11.863.234-14.685-.047-23.277-2.32-5.378-1.423-14.012-4.593-19.187-7.045-5.176-2.452-10.901-4.779-12.723-5.173-6.349-1.371-35.639-33.24-41.84-45.524-2.714-5.376-4.973-7.611-4.973-4.919"/><path fill="#1976D2" fill-opacity=".548" fill-rule="evenodd" d="M100.5 2.661c-10.176 2.178-20.483 6.45-31.194 12.93l-9.418 5.698-5.011-2.347c-3.708-1.737-5.434-2.081-6.635-1.323-2.796 1.764-2.451 3.118.964 3.786 5.152 1.007 11.829 6.567 22.897 19.067C77.718 46.812 82.478 52 82.682 52c.714 0-2.966-6.551-6.374-11.348-6.583-9.262-1.63-6.106 6.828 4.352 3.635 4.494 3.638 4.495 7 3.104 1.85-.766 4.568-1.48 6.04-1.587 1.472-.107 3.947-1.04 5.5-2.073 1.666-1.108 5.08-2.009 8.324-2.197 15.021-.87 20.636-.864 22.062.023 1.084.675 2.52.476 4.7-.651 4.171-2.157 7.04-2.041 11.122.448 2.143 1.306 4.72 1.966 7.028 1.799 2.004-.144 4.16.056 4.791.446.631.39 2.234.214 3.562-.391 1.955-.891 3.14-.712 6.219.939l3.804 2.038 2.686-3.701c6.315-8.704 25.404-22.853 29.711-22.023.984.189 2.86 2.288 4.171 4.664 1.547 2.804 2.725 3.977 3.357 3.345 1.17-1.17-2.054-8.999-4.556-11.064-2.296-1.896-10.348-1.007-15.58 1.72-5.942 3.097-9.966 2.734-18.849-1.702-12.172-6.078-29.601-10.987-44.728-12.598-5.293-.564-21.844 1.092-30.75 3.077-1.642.366-2.75.19-2.75-.436 0-1.331 1.957-1.875 9.75-2.71 4.194-.45 6.25-1.107 6.25-1.999 0-.731.787-1.534 1.75-1.786 4.593-1.2-7.112-.341-13.25.972M40.035 22.934C38.276 26.221 38.937 27.637 41 25c1.076-1.375 1.966-2.837 1.978-3.25.044-1.498-1.933-.702-2.943 1.184M36 43.016c-.825.524-2.972.96-4.77.969-2.935.013-3.716.707-7.621 6.765C15.069 64.001 12.676 70.113 8.44 89.5c-3.227 14.769-3.441 27.343-.825 48.371.854 6.864 2.519 3.526 3.131-6.276.295-4.727.856-8.595 1.248-8.595s1.004 3.451 1.361 7.668c.356 4.218.836 7.856 1.065 8.086.23.229 4.167-1.534 8.749-3.918L31.5 130.5l2.238-6.5c1.231-3.575 2.244-6.598 2.25-6.719.007-.12-.617.023-1.387.319-2.168.832-2.541-.745-1.419-6.005.719-3.371 1.606-4.988 2.925-5.333C38.069 105.749 38.76 104 37 104c-2.165 0-.832-3.986 2.1-6.281 2.781-2.177 2.966-2.641 1.794-4.517-1.113-1.783-1.044-2.379.473-4.056 1.682-1.858 1.685-2.018.048-2.934-1.523-.852-1.654-2.066-1.086-10.06.419-5.903.25-10.066-.482-11.871-.62-1.53-1.402-7.154-1.737-12.5-.522-8.31-.827-9.58-2.11-8.765m81.329 5.569c-.961 2.504.55 16.722 1.863 17.534.652.403 2.113 3.353 3.247 6.557 1.526 4.309 2.605 5.902 4.149 6.122 3.066.438 4.295-1.681 5.93-10.227.806-4.214 2.157-8.879 3.001-10.366 1.5-2.643 1.521-2.59.925 2.295-.795 6.508-.722 16.086.157 20.5l.696 3.5.867-3.898c.476-2.145 1.613-6.42 2.526-9.5 1.461-4.932 1.742-5.303 2.351-3.102.685 2.473.709 2.462 2.209-1 1.671-3.854 2.857-16 1.564-16-.448 0-.814.45-.814 1s-1.317 1-2.927 1c-1.999 0-3.611-.868-5.081-2.737-1.575-2.003-3.052-2.74-5.508-2.75-3.012-.012-3.418.326-3.978 3.31-.508 2.707-.884 3.108-2.024 2.162-1.125-.934-1.527-.654-2.049 1.427-1.011 4.027-2.18 3.066-2.933-2.412-.694-5.045-2.864-6.821-4.171-3.415M97.5 50c-2.158 1.1-5.178 2-6.711 2-4.756 0-3.077 3.296 3.085 6.055l4.128 1.848 2.646-2.452c3.076-2.851 4.776-2.083 5.708 2.581.329 1.642 1.572 4.304 2.762 5.914 1.585 2.144 2.022 3.813 1.631 6.241-.453 2.811.05 3.97 3.318 7.647 3.728 4.192 3.872 4.256 4.447 1.967.326-1.302.065-4.377-.58-6.834-.646-2.457-1.141-5.817-1.101-7.467.092-3.771-2.78-15.398-4.404-17.823-.777-1.161-1.461-1.434-1.884-.75-.837 1.354-6.219 1.41-7.045.073-.86-1.391-1.529-1.28-6 1m55.188 2c-.357 2.648.016 3.926 1.531 5.25 2.403 2.1 4.016 2.158 9.281.334 4.874-1.688 5.826-4.659 2.046-6.381-1.4-.638-2.546-1.602-2.546-2.142 0-.541-2.214-.888-4.92-.772-4.815.207-4.929.285-5.392 3.711m60.415 8.242c-2.538 5.409-8.103 11.913-8.103 9.47 0-2.58-3.899-2.153-4.911.538-.593 1.578-.434 2.489.533 3.05 2.032 1.179 1.675 4.379-.672 6.023-1.79 1.253-1.964 2.088-1.372 6.556.591 4.452.975 5.121 2.942 5.121 1.564 0 2.452.752 2.874 2.433.617 2.457 3.763 4.206 5.564 3.093.537-.332.71-1.936.384-3.565-.375-1.878-.18-2.961.533-2.961 1.13 0 1.331 1.269 1.665 10.5.27 7.487 2.284 24.132 3.437 28.415 1.262 4.685 3.256 6.439 9.114 8.018 2.524.681 5.899 2.347 7.5 3.702 2.862 2.424 2.868 2.453.409 1.785-1.375-.373-4.623-1.746-7.217-3.05-7.017-3.526-8.079-3.256-7.384 1.88l.574 4.25-1.489-3-1.49-3 .579 4c1.06 7.327 2.424 9.465 7.772 12.175 6.381 3.233 12.655 7.365 12.655 8.333 0 .408-3.262-.99-7.25-3.107s-7.812-3.86-8.5-3.875c-1.859-.039-1.515 3.534.77 8.014l2.021 3.96h-2.021c-3.519 0-2.203 2.872 3.042 6.64 3.439 2.47 4.735 3.963 4.042 4.656-.692.692-1.522.602-2.586-.281-2.269-1.883-2.978-.539-1.542 2.927 1.113 2.688.968 3.478-1.38 7.484-4.072 6.949-13.583 18.444-20.916 25.279-7.927 7.389-15.6 12.725-25.356 17.634-7.976 4.014-9.052 5.078-7.288 7.205 2.166 2.61 7.666 1.637 16.997-3.007 17.275-8.598 30.049-19.162 41.308-34.163 8.272-11.022 11.942-18.549 16.048-32.909 6.957-24.331 8.74-39.567 6.693-57.177-2.241-19.274-6.786-31.309-17.191-45.514C227.817 59.481 225 57.176 225 60.5c0 1.736-3.55 2.037-4.569.388-.378-.611-.071-1.493.683-1.958 1.158-.716 1.158-1.046.003-2.138-1.076-1.017-1.464-1.028-1.823-.05-.326.891-.984.959-2.324.242-1.601-.857-2.156-.388-3.867 3.258M152.161 70.75a690.21 690.21 0 0 1-2.497 13.825c-1.276 6.614-1.241 7.229.535 9.423 1.873 2.312 1.928 2.318 3.748.424 1.016-1.057 2.564-4.451 3.44-7.541.876-3.091 2.272-6.183 3.103-6.873.83-.689 1.51-1.718 1.51-2.285 0-.568-.824-.287-1.831.624-2.617 2.368-3.191 1.16-2.517-5.29.475-4.543.256-6.006-1.101-7.363-.932-.932-2.046-1.694-2.476-1.694-.43 0-1.291 3.037-1.914 6.75m-52.04-1.396c-.618.745-1.197 3.22-1.286 5.5-.184 4.678-1.183 5.171-3.839 1.896-2.262-2.791-3.72-1.634-2.185 1.734.624 1.371.89 3.132.59 3.914-.657 1.712 1.56 6.214 5.179 10.514 2.479 2.947 2.74 3.036 4.004 1.37 1.511-1.991 1.729-7.277.769-18.631-.653-7.725-1.186-8.763-3.232-6.297M57 83.878c0 2.528 2.189 4.241 3.994 3.126 1.201-.742 1.131-1.208-.439-2.943-2.32-2.563-3.555-2.627-3.555-.183m17.167 16.117c-5.133 2.635-10.71 6.076-12.393 7.648-4.264 3.982-15.03 26.488-14.218 29.723.359 1.433.004 3.417-.857 4.79-1.194 1.903-3.316 19.836-2.209 18.671.171-.18 1.723-3.998 3.448-8.486 1.725-4.487 3.866-8.762 4.756-9.5 1.463-1.211 1.549-.954.89 2.659-.626 3.438-.543 3.757.594 2.269 1.571-2.058 2.907-1.305 4.629 2.608 1.177 2.676 1.559 2.836 5.479 2.294 2.318-.32 5.636-.076 7.374.542 2.613.929 4.074.776 8.447-.886 5.512-2.094 7.564-4.327 3.976-4.327-3.088 0-2.535-2.715.917-4.5 3.905-2.019 3.792-3.129-.4-3.915-1.869-.351-3.949-1.301-4.622-2.111-1.611-1.942-6.867-1.884-9.058.099-1.581 1.43-2.017 1.428-4.829-.026-1.815-.938-3.091-2.386-3.091-3.505 0-2.504 5.24-6.158 10.887-7.592l4.508-1.145-2.447-1.579c-2.689-1.734-10.189-2.472-13.648-1.342-1.211.396-3.229 2.384-4.487 4.418-1.72 2.783-2.369 3.265-2.623 1.948-.185-.963-.754-1.75-1.263-1.75-1.654 0-.979-3.044.823-3.711.962-.357 4.9-3.488 8.75-6.958 3.85-3.47 7.567-6.314 8.259-6.32.693-.006 2.652 2.251 4.353 5.016 1.701 2.765 4.285 5.632 5.741 6.371 6.245 3.167 18.146 2.658 25.487-1.092 3.263-1.666 3.162-3.218-.775-11.898-2.714-5.983-5.572-8.955-11.065-11.506-6.345-2.947-10.831-2.297-21.333 3.093m86.016-1.136c-8.648 3.056-14.606 10.558-16.507 20.786-.665 3.583.726 4.348 7.824 4.301l4-.026-2.681-1.456c-2.485-1.349-4.611-5.005-3.536-6.08.256-.256 2.123.513 4.15 1.709 3.016 1.779 4.674 2.073 9.126 1.613 4.098-.423 5.441-.239 5.441.745 0 1.557-4.145 3.332-9 3.853-3.235.347-3.174.388.8.536 5.553.207 8.627-1.456 14.522-7.855 4.332-4.703 5.106-5.149 7.941-4.582 1.727.345 4.171 1.596 5.43 2.779l2.29 2.15-2.83 1.721c-3.284 1.998-7.153 6.62-7.153 8.547 0 2.795 4.541 3.793 18.75 4.12 13.567.311 14.25.234 14.25-1.62 0-3.985-2.385-12.1-3.557-12.1-.667 0-1.95-1.125-2.851-2.5s-2.483-2.5-3.516-2.5c-1.032 0-4.285-1.121-7.227-2.49-2.942-1.37-7.022-2.495-9.068-2.5-3.038-.008-3.603-.311-3.087-1.655.378-.986-.061-2.15-1.097-2.907-.95-.695-1.585-2.034-1.412-2.975.247-1.341-.549-1.781-3.685-2.038-2.2-.18-5.8-.581-8-.891-2.636-.371-5.813.077-9.317 1.315m-101.578 2.729c-.333.866-.605 2.494-.605 3.616 0 1.701.25 1.833 1.5.796 1.653-1.372 2.009-4.567.605-5.435-.493-.305-1.168.156-1.5 1.023m32.558.29c-.736.467-1.186 1.922-1 3.235.269 1.908.937 2.387 3.323 2.387 3.576 0 4.742-3.129 1.932-5.184-2.099-1.534-2.466-1.572-4.255-.438m70.087 1.784c-1.494.603-1.674 4.958-.241 5.844 1.505.93 4.721-.359 5.416-2.171 1.113-2.902-1.858-5.011-5.175-3.673M97.2 117.708c-1.265.881-4.303 1.645-6.75 1.697-5.351.114-5.687 1.032-.95 2.595 5.403 1.783 12.5-1.302 12.5-5.434 0-1.059-2.493-.466-4.8 1.142M25 135.958c-6.359 2.915-10.631 5.469-10.833 6.476-.418 2.091 3.405 14.806 5.954 19.804 1.388 2.72 2.563 3.762 4.244 3.762 3.891 0 5.438-2.835 6.005-11 .423-6.094 1.182-8.719 4.052-14 3.684-6.779 4.451-10.05 2.328-9.928-.687.039-5.975 2.238-11.75 4.886M193 137c0 3.388.06 3.353-3.462 2.014-2.266-.861-2.955-.579-5.473 2.239-2.862 3.204-2.894 3.212-5.003 1.303-2.094-1.895-2.177-1.894-6.219.063-3.952 1.914-4.033 2.048-2.289 3.792 1.379 1.379 2.836 1.692 6.141 1.32 7.695-.867 25.653.873 26.736 2.591.835 1.323 1.214 1.24 2.829-.622 1.496-1.725 1.738-3.076 1.224-6.818-.428-3.107-.252-4.907.524-5.387 2.027-1.253 3.022.952 3.261 7.226.307 8.076 1.481 7.099 1.481-1.234 0-8.494-1.253-9.487-11.973-9.487H193zm-77.5 3.991c-1.65 1.087-2.955 2.434-2.9 2.993.055.559.167 1.444.25 1.968.083.524 2.161 2.335 4.619 4.026 5.476 3.768 7.518 9.213 5.163 13.766-1.521 2.942-6.673 6.226-12.882 8.212-2.062.659-3.75 1.677-3.75 2.261 0 1.814 9.279.115 15.182-2.78l5.493-2.694 6.753 3.223c5.256 2.508 7.509 3.081 10.163 2.583 4.601-.863 4.298-2.151-.696-2.95-5.038-.805-8.669-2.631-11.712-5.89-1.948-2.085-2.202-3.096-1.594-6.345.693-3.712 2.888-6.417 9.804-12.084 2.272-1.861 2.534-2.548 1.623-4.25-.597-1.116-1.944-2.03-2.992-2.03s-2.184-.45-2.524-1c-.34-.55-1.604-.948-2.809-.884-1.692.09-1.792.22-.441.573 2.206.577 2.25 2.651.095 4.439-.91.754-2.266 2.835-3.013 4.622-1.659 3.969-2.77 4.08-4.995.5-.939-1.512-2.637-3.537-3.773-4.5L118.5 143l2.5-1.978 2.5-1.978-2.5-.015c-1.375-.009-3.85.874-5.5 1.962M9.07 144.75c.039.412.457 1.65.93 2.75.762 1.772.867 1.687.93-.75.038-1.512-.38-2.75-.93-2.75s-.968.338-.93.75m168.988 5.452c-3.463.387-6.424.837-6.579 1-.156.164-.44 1.398-.631 2.743-.334 2.346.036 2.516 9.152 4.213 18.747 3.489 16.676 3.553 18.397-.565 2.553-6.111 1.268-7.23-8.97-7.807-2.791-.157-7.907.03-11.369.416m33.369 9.048c1.437 11.014 3.287 12.924 5.328 5.5 1.056-3.838.979-4.383-.793-5.622-1.079-.755-1.962-2.217-1.962-3.25 0-1.069-.702-1.878-1.629-1.878-1.385 0-1.526.785-.944 5.25m-44.228 1.429c-1.757.704 5.053 6.839 10.367 9.339 4.029 1.895 4.105 1.894 8.19-.127 4.819-2.385 6.954-4.595 5.652-5.852-.864-.834-11.172-3.039-14.208-3.039-.941 0-1.254.687-.911 1.999.837 3.198-.793 3.187-3.656-.027-2.696-3.025-3.139-3.212-5.434-2.293m-138.767 6.393c-3.322.965-8.432 6.024-8.432 8.348 0 .79.673 2.111 1.497 2.934 2.249 2.249 7.503-.535 7.503-3.977 0-1.362.687-3.804 1.526-5.427.839-1.622 1.401-2.909 1.25-2.86-.152.05-1.657.491-3.344.982M7.031 168.5c0 .55.436 1.675.969 2.5.533.825.969 1.05.969.5S8.533 169.825 8 169c-.533-.825-.969-1.05-.969-.5m159.199 2.691c.219.656 2.037 2.518 4.04 4.14 3.398 2.75 3.854 2.86 6.793 1.643l3.15-1.305-2.299-1.734c-2.245-1.693-8.434-3.935-10.863-3.935-.67 0-1.039.536-.821 1.191M10 176.459c0 .252 2.176 5.089 4.835 10.75 5.999 12.766 14.42 24.02 28.665 38.305 9.29 9.317 12.434 11.774 20.225 15.814 18.432 9.555 35.692 13.669 57.275 13.65 13.131-.011 22.672-1.855 25.098-4.851 1.94-2.396 1.411-6.788-.97-8.05-.921-.488-9.665-.424-20.128.148-25.932 1.418-36.369-.361-57-9.719-5.225-2.37-10.913-4.837-12.639-5.483-6.9-2.58-35.092-33.669-40.508-44.669-1.72-3.495-3.516-6.354-3.99-6.354-.475 0-.863.206-.863.459m152.25.203c-.687.278-1.265 1.03-1.283 1.671-.017.642-1.663 1.932-3.657 2.868-2.73 1.281-4.111 1.441-5.595.647-2.238-1.198-3.674.227-3.7 3.675-.02 2.651-6.748 6.527-7.951 4.58-.648-1.047-1.189-1.042-2.905.03-1.615 1.008-2.384 1.042-3.284.142-.899-.899-2.012-.483-4.752 1.775-1.968 1.623-3.854 2.95-4.19 2.95-.337 0-1.15-1.181-1.808-2.625-1.046-2.295-1.631-2.555-4.661-2.063-3.206.52-3.464.369-3.464-2.03 0-2.547-.036-2.56-2.043-.743-1.996 1.806-2.056 1.798-2.614-.334-.314-1.2-.948-1.949-1.41-1.664-1.698 1.05-4.894-2.849-4.294-5.237.711-2.835-.723-2.974-3.139-.304-2.392 2.643-6.5 2.686-6.5.067 0-2.003-3.224-3.665-4.991-2.573-1.703 1.053-1.121 4.419.993 5.74 1.714 1.07 1.912 1.934 1.374 5.991-.763 5.753 1.301 7.367 4.989 3.902 3.032-2.849 4.162-2.683 5.615.824.672 1.623 2.302 3.659 3.621 4.523 1.32.865 2.399 2.288 2.399 3.164 0 1.952 5.028 11.362 6.071 11.362.414 0 1.057-1.8 1.429-4 .802-4.75 3.053-5.312 4-1 .617 2.81 2.5 4.272 2.5 1.941 0-.582.45-.781 1-.441s1 2.178 1 4.084c0 2.723.506 3.658 2.363 4.364 1.3.494 2.653 1.946 3.008 3.225.539 1.948 1.022 1.268 2.967-4.173 1.278-3.575 3.262-8.3 4.409-10.5l2.084-4 1.023 2.653c1.451 3.764 2.765 4.222 4.627 1.614 1.547-2.168 1.678-2.187 2.985-.44 1.277 1.706 1.533 1.72 3.846.204 3.052-2 3.561-3.801 2.929-10.377-.562-5.845.69-8.154 4.421-8.154 1.54 0 3.872-1.529 6.424-4.211l4.006-4.211-2.296-1.767c-2.358-1.814-3.374-2.025-5.546-1.149m-10.643 67.92c-.334.87-.607 1.722-.607 1.894 0 .709 7.327-1.403 8.322-2.398.771-.771-.09-1.078-3.015-1.078-2.81 0-4.283.496-4.7 1.582"/></svg>