<?xml version="1.0" encoding="utf-8"?>
<!-- Generator: Adobe Illustrator 24.0.0, SVG Export Plug-In . SVG Version: 6.00 Build 0)  -->
<svg version="1.1" id="Ebene_1" xmlns="http://www.w3.org/2000/svg" xmlns:xlink="http://www.w3.org/1999/xlink" x="0px" y="0px"
	 viewBox="0 0 1185 248" style="enable-background:new 0 0 1185 248;" xml:space="preserve">
<style type="text/css">
	.st0{fill:#FFFFFF;}
	.st1{fill:#F5F5F5;}
</style>
<path class="st0" d="M50.5,199.8c112.4,0,87.5-49,188.7-59.3s146.7,38.3,219.5,38.3s107.9-21.9,210.8-69.3
	c102.8-47.3,274-8.7,424.8,69.3c37.7,19.5,68,36.7,90.7,51.5V0H0v193C15,197.2,31.6,199.8,50.5,199.8z"/>
<g transform="translate(0.000000,768.000000) scale(0.100000,-0.100000)">
	<path class="st1" d="M5047.8,6603.2c-25.8,10.9-62.6-0.3-88.3-26.8c-3.7-3.8-5.4-6.1-9.6-13c-4.6-7.6-5.3-9-7.2-15.3
		c-5.5-18.1-6.4-38.4-2.7-55.9c2.1-9.4,4.4-15.7,8.1-21.9c7.5-12.6,19.4-19.8,33.6-20.5c6.1-0.2,18.3,2.6,25,5.7
		c17.5,8.4,34.6,24.2,48.5,44.9c10.7,15.9,16.4,31.5,17.9,48.8c1.6,18.4-2.1,33.9-10.5,43.6
		C5059.7,6596.3,5052.8,6601.1,5047.8,6603.2z"/>
	<path class="st1" d="M5151.9,6506.4c-16.5,4.9-36.4,3.5-53.2-3.6c-21-8.9-43.5-26.1-57.9-44.4c-5.9-7.5-8.7-11.9-11.7-18.4
		c-8.9-19.4-7-36.9,5.3-49.6c3.4-3.5,12-9,17.4-11.1c21.9-8.4,55.6-6.8,77.9,3.7c28,13.1,49.9,47.3,50.7,79c0.3,11-4.3,25.4-10.3,33
		C5167,6498.7,5157.5,6504.6,5151.9,6506.4z"/>
	<path class="st1" d="M4894.8,6561.2c-7.2,2.6-14.9,2.8-24.7,0.7c-38.9-8.2-83.1-46.6-89.1-77.5c-1.1-5.7-0.9-11,0.7-18.5
		c2.2-10,5.8-17.2,12.2-24.5c3.9-4.5,15.5-11.4,21.9-13.2c18-4.8,39.8-1.6,57.3,8.6c29.1,16.9,46.6,51.3,43.4,85.3
		c-1.1,11.7-5.3,24.3-10.2,30.6C4904,6555.7,4898.2,6560,4894.8,6561.2z"/>
	<path class="st1" d="M5107,6341.8c-17.8,6.9-43,5.4-61.4-3.7c-9.7-4.8-16-10.7-23.1-21.2c-20.3-30.3-26.9-74.8-14.2-95.2
		c2.9-4.6,3.6-5.3,7.9-8.2c7.7-5.3,15-6.9,25.5-5.6c9.6,1.2,20,5.3,31.1,12.3c11.4,7.2,21.2,15.7,30.9,26.7c6,6.8,16.6,23.4,20,31.3
		c6.3,14.6,8.1,27.4,5.5,38.8c-2.1,9.1-6.2,14.8-14.4,20.3C5112,6339.2,5108.5,6341.3,5107,6341.8z"/>
	<path class="st1" d="M4918.8,6387c-9.2,3.4-17.2,4.5-36.3,4.6c-26.8,0.2-31.4,1.2-57.6,12.9c-22.1,9.8-32.1,12.4-44.6,11.6
		c-12.9-0.9-28.2-9.1-38.2-20.8c-17.8-20.7-14.9-49,8.7-85.4c10.2-15.8,22.3-30.8,44.8-55.6c7.3-8.1,18-19.9,23.9-26.4
		c6.7-7.6,10.9-11.7,11.3-11.5c0.9,0.5,21.6-21.5,21.8-23c0.1-1.2,9.6-10.3,19-18.3c26.2-22.1,49-31.3,67.8-27.4
		c9.8,2,16.8,6.1,25.4,15c6.5,6.7,14.4,19.5,16.5,26.8c4.6,15.5,2.4,29-9,55.5c-8.7,20.4-11.5,31.3-11.1,42.3
		c0.1,2.1,1,8.8,2.1,14.8c1.9,10.7,2.9,19.1,2.7,23.5c-0.6,13.7-12.5,34.9-27,48.2C4933.5,6378.7,4923.9,6385.1,4918.8,6387z"/>
</g>
<g transform="translate(0.000000,768.000000) scale(0.100000,-0.100000)">
	<path class="st1" d="M4094.7,6554.4c-25.2,12.3-62.5,3-89.6-22.1c-3.9-3.6-5.7-5.8-10.2-12.5c-5-7.3-5.7-8.7-8-14.9
		c-6.4-17.8-8.4-38-5.6-55.6c1.6-9.5,3.5-15.9,6.9-22.3c6.9-13,18.3-20.8,32.5-22.2c6.1-0.6,18.5,1.6,25.3,4.4
		c17.9,7.4,35.8,22.3,50.8,42.3c11.5,15.3,18.1,30.6,20.5,47.7c2.6,18.3-0.3,34-8.2,44.1C4106.1,6546.9,4099.6,6552,4094.7,6554.4z"
		/>
	<path class="st1" d="M4193.5,6452.2c-16.2,5.7-36.2,5.5-53.3-0.8c-21.5-7.8-44.9-23.8-60.2-41.3c-6.3-7.2-9.3-11.5-12.6-17.8
		c-9.9-18.9-8.9-36.5,2.7-49.8c3.2-3.7,11.5-9.6,16.8-12c21.4-9.5,55.1-9.7,78-0.5c28.6,11.6,52.4,44.6,54.8,76.2
		c0.8,11-2.9,25.5-8.6,33.5C4208.1,6443.7,4199,6450.2,4193.5,6452.2z"/>
	<path class="st1" d="M3939.6,6520.6c-7.1,3-14.7,3.6-24.6,2c-39.3-6.1-85.4-42.2-93.1-72.6c-1.4-5.7-1.5-10.9-0.3-18.5
		c1.7-10.1,4.9-17.5,10.9-25.1c3.7-4.7,14.9-12.2,21.1-14.3c17.7-5.8,39.6-3.7,57.7,5.6c30,15.4,49.3,48.8,47.9,82.9
		c-0.5,11.7-4.1,24.5-8.5,31.1C3948.5,6514.6,3943,6519.2,3939.6,6520.6z"/>
	<path class="st1" d="M4139.9,6290.2c-17.4,7.9-42.6,7.7-61.5-0.5c-9.9-4.3-16.6-9.8-24.1-19.9c-21.8-29.2-30.8-73.3-19.2-94.3
		c2.6-4.7,3.3-5.5,7.4-8.6c7.4-5.7,14.6-7.6,25.2-6.9c9.7,0.7,20.2,4.2,31.7,10.7c11.7,6.6,22,14.6,32.3,25
		c6.4,6.5,17.8,22.5,21.6,30.2c7,14.3,9.6,26.9,7.5,38.4c-1.6,9.2-5.4,15.1-13.3,21.1C4144.8,6287.4,4141.4,6289.6,4139.9,6290.2z"
		/>
	<path class="st1" d="M3954.4,6345.3c-9,3.9-17,5.4-36,6.5c-26.7,1.6-31.3,2.9-56.9,16c-21.6,11-31.4,14.1-43.9,13.9
		c-13-0.2-28.6-7.6-39.2-18.7c-18.9-19.7-17.5-48.1,4.2-85.8c9.4-16.3,20.6-31.9,41.8-57.9c6.9-8.4,16.9-20.9,22.5-27.7
		c6.3-7.9,10.2-12.3,10.6-12.1c0.9,0.4,20.5-22.6,20.6-24.2c0-1.2,9.1-10.8,18-19.3c25-23.5,47.3-33.9,66.3-31
		c9.9,1.5,17.1,5.2,26.2,13.7c6.8,6.3,15.4,18.8,17.9,25.9c5.4,15.2,3.9,28.9-6.1,55.9c-7.6,20.8-9.9,31.8-8.9,42.8
		c0.2,2.1,1.5,8.7,2.9,14.6c2.5,10.5,3.9,18.9,3.9,23.3c0.1,13.7-10.6,35.5-24.4,49.6C3968.6,6336.3,3959.3,6343.1,3954.4,6345.3z"
		/>
</g>
<g transform="translate(0.000000,768.000000) scale(0.100000,-0.100000)">
	<path class="st1" d="M6027.2,7395.4c-25.2,12.3-62.5,3-89.6-22.1c-3.9-3.6-5.7-5.8-10.2-12.5c-5-7.3-5.7-8.7-8-14.9
		c-6.4-17.8-8.4-38-5.6-55.6c1.6-9.5,3.5-15.9,6.9-22.3c6.9-13,18.3-20.8,32.5-22.2c6.1-0.6,18.5,1.6,25.3,4.4
		c17.9,7.4,35.8,22.3,50.8,42.3c11.5,15.3,18.1,30.6,20.5,47.7c2.6,18.3-0.3,34-8.2,44.1C6038.6,7387.9,6032.1,7393,6027.2,7395.4z"
		/>
	<path class="st1" d="M6126,7293.2c-16.2,5.7-36.2,5.5-53.3-0.8c-21.5-7.8-44.9-23.8-60.2-41.3c-6.3-7.2-9.3-11.5-12.6-17.8
		c-9.9-18.9-8.9-36.5,2.7-49.8c3.2-3.7,11.5-9.6,16.8-12c21.4-9.5,55.1-9.7,78-0.5c28.6,11.6,52.4,44.6,54.8,76.2
		c0.8,11-2.9,25.5-8.6,33.5C6140.6,7284.7,6131.5,7291.1,6126,7293.2z"/>
	<path class="st1" d="M5872.1,7361.5c-7.1,3-14.7,3.6-24.6,2c-39.3-6.1-85.4-42.2-93.1-72.6c-1.4-5.7-1.5-10.9-0.3-18.5
		c1.7-10.1,4.9-17.5,10.9-25.1c3.7-4.7,14.9-12.2,21.1-14.3c17.7-5.8,39.6-3.7,57.7,5.6c30,15.4,49.3,48.8,47.9,82.9
		c-0.5,11.7-4.1,24.5-8.5,31.1C5881,7355.6,5875.5,7360.2,5872.1,7361.5z"/>
	<path class="st1" d="M6072.4,7131.2c-17.4,7.9-42.6,7.7-61.5-0.5c-9.9-4.3-16.6-9.8-24.1-19.9c-21.8-29.2-30.8-73.3-19.2-94.3
		c2.6-4.7,3.3-5.5,7.4-8.6c7.4-5.7,14.6-7.6,25.2-6.9c9.7,0.7,20.2,4.2,31.7,10.7c11.7,6.6,22,14.6,32.3,25
		c6.4,6.5,17.8,22.5,21.6,30.2c7,14.3,9.6,26.9,7.5,38.4c-1.6,9.2-5.4,15.1-13.3,21.1C6077.3,7128.3,6073.9,7130.6,6072.4,7131.2z"
		/>
	<path class="st1" d="M5886.9,7186.3c-9,3.9-17,5.4-36,6.5c-26.7,1.6-31.3,2.9-56.9,16c-21.6,11-31.4,14.1-43.9,13.9
		c-13-0.2-28.6-7.6-39.2-18.7c-18.9-19.7-17.5-48.1,4.2-85.8c9.4-16.3,20.6-31.9,41.8-57.9c6.9-8.4,16.9-20.9,22.5-27.7
		c6.3-7.9,10.2-12.3,10.6-12.1c0.9,0.4,20.5-22.6,20.6-24.2c0-1.2,9.1-10.8,18-19.3c25-23.5,47.3-33.9,66.3-31
		c9.9,1.5,17.1,5.2,26.2,13.7c6.8,6.3,15.4,18.8,17.9,25.9c5.4,15.2,3.9,28.9-6.1,55.9c-7.6,20.8-9.9,31.8-8.9,42.8
		c0.2,2.1,1.5,8.7,2.9,14.6c2.5,10.5,3.9,18.9,3.9,23.3c0.1,13.7-10.6,35.5-24.4,49.6C5901.1,7177.3,5891.8,7184.1,5886.9,7186.3z"
		/>
</g>
<g transform="translate(0.000000,768.000000) scale(0.100000,-0.100000)">
	<path class="st1" d="M5019,7345.9c-25.2,12.3-62.5,3-89.6-22.1c-3.9-3.6-5.7-5.8-10.2-12.5c-5-7.3-5.7-8.7-8-14.9
		c-6.4-17.8-8.4-38-5.6-55.6c1.6-9.5,3.5-15.9,6.9-22.3c6.9-13,18.3-20.8,32.5-22.2c6.1-0.6,18.5,1.6,25.3,4.4
		c17.9,7.4,35.8,22.3,50.8,42.3c11.5,15.3,18.1,30.6,20.5,47.7c2.6,18.3-0.3,34-8.2,44.1C5030.5,7338.4,5023.9,7343.5,5019,7345.9z"
		/>
	<path class="st1" d="M5117.9,7243.7c-16.2,5.7-36.2,5.5-53.3-0.8c-21.5-7.8-44.9-23.8-60.2-41.3c-6.3-7.2-9.3-11.5-12.6-17.8
		c-9.9-18.9-8.9-36.5,2.7-49.8c3.2-3.7,11.5-9.6,16.8-12c21.4-9.5,55.1-9.7,78-0.5c28.6,11.6,52.4,44.6,54.8,76.2
		c0.8,11-2.9,25.5-8.6,33.5C5132.5,7235.2,5123.4,7241.7,5117.9,7243.7z"/>
	<path class="st1" d="M4864,7312.1c-7.1,3-14.7,3.6-24.6,2c-39.3-6.1-85.4-42.2-93.1-72.6c-1.4-5.7-1.5-10.9-0.3-18.5
		c1.7-10.1,4.9-17.5,10.9-25.1c3.7-4.7,14.9-12.2,21.1-14.3c17.7-5.8,39.6-3.7,57.7,5.6c30,15.4,49.3,48.8,47.9,82.9
		c-0.5,11.7-4.1,24.5-8.5,31.1C4872.9,7306.1,4867.3,7310.7,4864,7312.1z"/>
	<path class="st1" d="M5064.3,7081.8c-17.4,7.9-42.6,7.7-61.5-0.5c-9.9-4.3-16.6-9.8-24.1-19.9c-21.8-29.2-30.8-73.3-19.2-94.3
		c2.6-4.7,3.3-5.5,7.4-8.6c7.4-5.7,14.6-7.6,25.2-6.9c9.7,0.7,20.2,4.2,31.7,10.7c11.7,6.6,22,14.6,32.3,25
		c6.4,6.5,17.8,22.5,21.6,30.2c7,14.3,9.6,26.9,7.5,38.4c-1.6,9.2-5.4,15.1-13.3,21.1C5069.2,7078.9,5065.7,7081.1,5064.3,7081.8z"
		/>
	<path class="st1" d="M4878.8,7136.8c-9,3.9-17,5.4-36,6.5c-26.7,1.6-31.3,2.9-56.9,16c-21.6,11-31.4,14.1-43.9,13.9
		c-13-0.2-28.6-7.6-39.2-18.7c-18.9-19.7-17.5-48.1,4.2-85.8c9.4-16.3,20.6-31.9,41.8-57.9c6.9-8.4,16.9-20.9,22.5-27.7
		c6.3-7.9,10.2-12.3,10.6-12.1c0.9,0.4,20.5-22.6,20.6-24.2c0-1.2,9.1-10.8,18-19.3c25-23.5,47.3-33.9,66.3-31
		c9.9,1.5,17.1,5.2,26.2,13.7c6.8,6.3,15.4,18.8,17.9,25.9c5.4,15.2,3.9,28.9-6.1,55.9c-7.6,20.8-9.9,31.8-8.9,42.8
		c0.2,2.1,1.5,8.7,2.9,14.6c2.5,10.5,3.9,18.9,3.9,23.3c0.1,13.7-10.6,35.5-24.4,49.6C4893,7127.8,4883.7,7134.7,4878.8,7136.8z"/>
</g>
</svg>
