<?xml version="1.0" encoding="utf-8"?>
<!-- Generator: Adobe Illustrator 24.0.0, SVG Export Plug-In . SVG Version: 6.00 Build 0)  -->
<svg version="1.1" id="Ebene_1" xmlns="http://www.w3.org/2000/svg" xmlns:xlink="http://www.w3.org/1999/xlink" x="0px" y="0px"
	 viewBox="0 0 1185 248" style="enable-background:new 0 0 1185 248;" xml:space="preserve">
<style type="text/css">
	.st0{fill:#FFFFFF;}
</style>
<path d="M0,0v17.7c22.7,14.8,53,31.9,90.7,51.5c150.8,78,322,116.6,424.8,69.3c102.9-47.4,138-69.3,210.8-69.3
	s118.3,48.6,219.5,38.3s76.3-59.3,188.7-59.3c18.9,0,35.5,2.6,50.5,6.8V0H0z"/>
<g transform="translate(0.000000,768.000000) scale(0.100000,-0.100000)">
	<path d="M7712.6,6093.5c-45.7-7-87.9-54.6-101.1-114.1c-1.9-8.6-2.3-13.2-2.2-26.5c0.1-14.6,0.4-17.3,3.1-27.9
		c8-30.2,24.2-59.6,44.6-80.9c11-11.4,19.7-18.3,30.4-23.8c21.5-11.2,44.5-11.1,65.1,0.3c8.8,4.9,23.6,19.5,30.3,29.7
		c17.4,26.9,27.8,64,29.4,105.2c1.3,31.6-4.1,58.5-17,84.2c-13.6,27.3-32.3,45.9-52.5,52.3C7735.2,6094,7721.5,6094.8,7712.6,6093.5
		z"/>
	<path d="M7943,6047.2c-27.4-7.5-54.3-26.5-71.8-51.2c-21.9-30.8-38.7-74.5-43.1-112.7c-1.8-15.6-1.9-24.3-0.5-36
		c4.3-35,22.1-58,50.5-65.2c7.8-2,24.7-2.2,34.1-0.5c38,7.2,84.1,38.6,106.5,72.6c28.1,42.7,29.4,109.8,2.9,155.1
		c-9.2,15.7-28,32-43.1,37.4C7970.9,6049.5,7952.4,6049.7,7943,6047.2z"/>
	<path d="M7533.5,5901.8c-12.4-2.6-23.4-9-35.4-20.4c-47.6-45.2-76.6-137.6-58.4-186.2c3.4-9,8.3-16.2,17.1-25.4
		c11.8-12.2,23-19.2,38.5-23.9c9.4-2.9,31.7-2.6,42.2,0.4c29.5,8.8,57.3,32.2,73.3,61.8c26.3,49,21.2,112.6-12.7,157.6
		c-11.7,15.4-28.6,29.6-40.8,34.2C7551.3,5902.1,7539.3,5903.1,7533.5,5901.8z"/>
	<path d="M8022.1,5776.7c-31.1-5.7-65.2-29.6-83.2-58.3c-9.5-15.1-13.3-28.9-14.1-49.8c-2.3-60.1,26.8-128.6,62.5-146.2
		c8-3.9,9.6-4.3,18.2-4.7c15.3-0.8,27,3.3,40.8,14.2c12.5,10.1,23.5,24.7,33.1,44.3c9.8,20,16.2,40.5,20.4,64.3
		c2.5,14.8,3,47.3,1,61.4c-3.8,26-12.3,45.6-25.8,59.3c-10.8,11-21.5,15.5-37.8,16.1C8031.5,5777.4,8024.8,5777.2,8022.1,5776.7z"/>
	<path d="M7718.2,5677.4c-15.9-3.1-28.2-8.6-55-24.9c-37.8-22.9-45.2-25.4-92.3-31.7c-39.7-5.3-55.9-10.3-72.8-22.3
		c-17.5-12.4-31.8-37.2-35.7-62.3c-7.2-44.5,21.4-81.8,86.2-112.7c28.1-13.4,58-24,111.1-39.5c17.3-5,42.6-12.5,56.5-16.6
		c16-4.8,25.4-7.1,25.8-6.5c0.8,1.4,49-11.5,50.7-13.5c1.2-1.6,22.5-6.2,42.6-9.3c56-8.5,96.1-1.7,119.2,20.1
		c12,11.3,18.4,23.2,22.8,43.2c3.3,15,3.3,40,0,52.1c-7,25.7-21.8,42.9-60.8,70.3c-29.9,21.2-43.3,34-52.3,50
		c-1.7,3-6.2,13.2-9.8,22.6c-6.6,16.7-12.5,29.4-16.6,35.3c-12.7,18.8-47.8,38.3-79.8,44.5C7746,5678.5,7727,5679.1,7718.2,5677.4z"
		/>
</g>
<g transform="translate(0.000000,768.000000) scale(0.100000,-0.100000)">
	<path d="M8690.2,6467.8c-45.7-7-87.9-54.6-101.1-114.1c-1.9-8.6-2.3-13.2-2.2-26.5c0.1-14.6,0.4-17.3,3.1-27.9
		c8-30.2,24.2-59.6,44.6-80.9c11-11.4,19.7-18.3,30.4-23.8c21.5-11.2,44.5-11.1,65.1,0.3c8.8,4.9,23.6,19.5,30.3,29.7
		c17.4,26.9,27.8,64,29.4,105.2c1.3,31.6-4.1,58.5-17,84.2c-13.6,27.3-32.3,45.9-52.5,52.3
		C8712.8,6468.3,8699.1,6469.1,8690.2,6467.8z"/>
	<path d="M8920.6,6421.5c-27.4-7.5-54.3-26.5-71.8-51.2c-21.9-30.8-38.7-74.5-43.1-112.7c-1.8-15.6-1.9-24.3-0.5-36
		c4.3-35,22.1-58,50.5-65.2c7.8-2,24.7-2.2,34.1-0.5c38,7.2,84.1,38.6,106.5,72.6c28.1,42.7,29.4,109.8,2.9,155.1
		c-9.2,15.7-28,32-43.1,37.4C8948.5,6423.8,8930,6424,8920.6,6421.5z"/>
	<path d="M8511.1,6276.1c-12.4-2.6-23.4-9-35.4-20.4c-47.6-45.2-76.6-137.6-58.4-186.2c3.4-9,8.3-16.2,17.1-25.4
		c11.8-12.2,23-19.2,38.5-23.9c9.4-2.9,31.7-2.6,42.2,0.4c29.5,8.8,57.3,32.2,73.3,61.8c26.3,49,21.2,112.6-12.7,157.6
		c-11.7,15.4-28.6,29.6-40.8,34.2C8528.9,6276.4,8517,6277.4,8511.1,6276.1z"/>
	<path d="M8999.8,6151c-31.1-5.7-65.2-29.6-83.2-58.3c-9.5-15.1-13.3-28.9-14.1-49.8c-2.3-60.1,26.8-128.6,62.5-146.2
		c8-3.9,9.6-4.3,18.2-4.7c15.3-0.8,27,3.3,40.8,14.2c12.5,10.1,23.5,24.7,33.1,44.3c9.8,20,16.2,40.5,20.4,64.3
		c2.5,14.8,3,47.3,1,61.4c-3.8,26-12.3,45.6-25.8,59.3c-10.8,11-21.5,15.5-37.8,16.1C9009.1,6151.7,9002.4,6151.5,8999.8,6151z"/>
	<path d="M8695.8,6051.7c-15.9-3.1-28.2-8.6-55-24.9c-37.8-22.9-45.2-25.4-92.3-31.7c-39.7-5.3-55.9-10.3-72.8-22.3
		c-17.5-12.4-31.8-37.2-35.7-62.3c-7.2-44.5,21.4-81.8,86.2-112.7c28.1-13.4,58-24,111.1-39.5c17.3-5,42.6-12.5,56.5-16.6
		c16-4.8,25.4-7.1,25.8-6.5c0.8,1.4,49-11.5,50.7-13.5c1.2-1.6,22.5-6.2,42.6-9.3c56-8.5,96.1-1.7,119.2,20.1
		c12,11.3,18.4,23.2,22.8,43.2c3.3,15,3.3,40,0,52.1c-7,25.7-21.8,42.9-60.8,70.3c-29.9,21.2-43.3,34-52.3,50
		c-1.7,3-6.2,13.2-9.8,22.6c-6.6,16.7-12.5,29.4-16.6,35.3c-12.7,18.8-47.8,38.3-79.8,44.5
		C8723.6,6052.8,8704.6,6053.4,8695.8,6051.7z"/>
</g>
<g transform="translate(0.000000,768.000000) scale(0.100000,-0.100000)">
	<path class="st0" d="M8681,7599.5c-46,4.9-98.9-30.5-126.8-84.7c-4-7.8-5.6-12.2-8.9-25.1c-3.6-14.2-4-16.8-4.1-27.7
		c0-31.2,8.3-63.8,22.6-89.6c7.7-13.8,14.4-22.7,23.3-30.8c17.9-16.3,40.2-22,63-16.2c9.7,2.6,27.8,12.8,36.8,21
		c23.6,21.7,43.1,54.8,55.1,94.2c9.3,30.2,10.9,57.7,5,85.7c-6.2,29.9-19.6,52.6-37.5,63.9C8703,7594.2,8689.9,7598.5,8681,7599.5z"
		/>
	<path class="st0" d="M8892.1,7496.3c-28.4-0.2-59.3-11.9-82.4-31.3c-29-24.2-56.3-62.2-70.3-98.1c-5.7-14.7-8-23-9.6-34.7
		c-4.7-35,6.6-61.7,32.2-75.9c7-3.9,23.3-8.4,32.9-9.2c38.6-2.7,91.1,15.9,121.4,43.1c38,34.2,56.3,98.7,42.2,149.3
		c-4.9,17.6-18.9,38-32.2,47.2C8919.6,7491.3,8901.8,7496.2,8892.1,7496.3z"/>
	<path class="st0" d="M8459.1,7459.6c-12.7,0.6-24.9-2.7-39.4-10.7c-57.6-31.6-109-113.6-103.8-165.2c1-9.6,3.9-17.8,10-28.9
		c8.3-14.8,17.4-24.4,31.1-32.9c8.3-5.2,30-10.6,40.9-10.3c30.7,1,63.6,16.6,86.6,41.1c37.9,40.7,49.1,103.5,27.7,155.7
		c-7.4,17.9-20.1,35.9-30.7,43.4C8476.3,7455.4,8465.1,7459.4,8459.1,7459.6z"/>
	<path class="st0" d="M8899.9,7214.5c-31.5,2.4-70.6-12-95.2-35.3c-13-12.2-20.2-24.5-26.3-44.5c-17.5-57.6-6.7-131.2,23.3-157.3
		c6.7-5.8,8.2-6.6,16.4-9.2c14.6-4.7,27-3.7,43,3.4c14.7,6.6,29,17.9,43.3,34.4c14.5,16.8,26,35,36,57c6.2,13.7,15,45,16.6,59.1
		c2.9,26.2-0.3,47.2-9.9,64c-7.6,13.4-16.8,20.5-32.5,25.2C8909.1,7212.8,8902.5,7214.3,8899.9,7214.5z"/>
	<path class="st0" d="M8580.7,7195.6c-16.2,1-29.4-1.1-59.5-10.1c-42.4-12.5-50.2-13.1-97.4-7.2c-39.7,4.9-56.7,4.2-76-3.1
		c-20-7.6-40.2-27.9-50.4-51.1c-18.2-41.2-0.1-84.6,54.7-130.9c23.7-20.1,50-38,97.4-66.4c15.4-9.3,38-22.9,50.5-30.4
		c14.3-8.8,22.8-13.3,23.3-12.8c1.1,1.2,44.5-23.6,45.6-26c0.8-1.9,20.2-11.7,38.8-19.8c52-22.4,92.5-26.1,120.4-10.9
		c14.5,7.9,23.7,17.8,33,36c7,13.7,13.4,37.8,13.2,50.4c-0.2,26.7-10.2,47-40.9,83.5c-23.5,28.1-33.2,43.9-37.9,61.6
		c-0.9,3.4-2.6,14.4-3.7,24.4c-2.1,17.8-4.6,31.6-7,38.4c-7.5,21.4-36.5,49.2-65.9,63.3C8607.9,7189.6,8589.6,7195.1,8580.7,7195.6z
		"/>
</g>
</svg>
