<?xml version="1.0" encoding="utf-8"?>
<!-- Generator: Adobe Illustrator 24.0.0, SVG Export Plug-In . SVG Version: 6.00 Build 0)  -->
<svg version="1.1" id="Ebene_1" xmlns="http://www.w3.org/2000/svg" xmlns:xlink="http://www.w3.org/1999/xlink" x="0px" y="0px"
	 viewBox="0 0 1185 248" style="enable-background:new 0 0 1185 248;" xml:space="preserve">
<style type="text/css">
	.st0{fill:#F5F5F5;}
</style>
<path class="st0" d="M0,0v17.7c22.7,14.8,53,31.9,90.7,51.5c150.8,78,322,116.6,424.8,69.3c102.9-47.4,138-69.3,210.8-69.3
	s118.3,48.6,219.5,38.3s76.3-59.3,188.7-59.3c18.9,0,35.5,2.6,50.5,6.8V0H0z"/>
<g transform="translate(0.000000,768.000000) scale(0.100000,-0.100000)">
	<path class="st0" d="M7794.5,6251.9c26.8-7.9,62.2,7.4,84.7,36.6c3.3,4.2,4.7,6.7,8,14c3.7,8,4.2,9.6,5.4,16.1
		c3.4,18.6,2,38.9-3.7,55.8c-3.1,9.1-6.1,15.1-10.5,20.8c-8.9,11.7-21.5,17.5-35.8,16.5c-6.1-0.5-17.9-4.6-24.2-8.5
		c-16.4-10.3-31.6-27.9-43.1-50.1c-8.8-17-12.7-33.1-12.3-50.5c0.5-18.5,5.9-33.4,15.4-42.1
		C7782,6257.4,7789.3,6253.4,7794.5,6251.9z"/>
	<path class="st0" d="M7680.1,6336.3c17-2.9,36.6,0.6,52.4,9.6c19.9,11.3,40.3,30.9,52.5,50.7c5,8.1,7.3,12.8,9.5,19.6
		c6.6,20.3,2.8,37.5-10.9,48.7c-3.7,3.1-13,7.6-18.6,9c-22.7,5.8-56,0.4-77-12.5c-26.3-16.2-44.3-52.6-41.4-84.3
		c1-11,7.1-24.7,14-31.6C7664.2,6342.2,7674.3,6337.4,7680.1,6336.3z"/>
	<path class="st0" d="M7941.8,6311c7.5-1.7,15.1-1.1,24.6,2.1c37.7,12.6,77.3,55.7,79.8,87.1c0.4,5.8-0.4,11-2.8,18.3
		c-3.3,9.7-7.7,16.4-14.9,23c-4.4,4-16.7,9.6-23.2,10.6c-18.4,2.7-39.7-2.9-56-15.1c-27-20.1-40.5-56.3-33.5-89.7
		c2.5-11.5,8.1-23.5,13.6-29.2C7932,6315.4,7938.3,6311.7,7941.8,6311z"/>
	<path class="st0" d="M7706.1,6504.9c18.5-4.9,43.3-0.5,60.5,10.6c9.1,5.9,14.7,12.4,20.5,23.6c16.7,32.4,18.3,77.4,3.3,96.2
		c-3.4,4.2-4.1,4.8-8.7,7.3c-8.2,4.4-15.7,5.1-26,2.7c-9.4-2.3-19.2-7.5-29.5-15.8c-10.5-8.4-19.3-18-27.7-30
		c-5.2-7.5-13.8-25.2-16.3-33.4c-4.6-15.3-5-28.2-1.1-39.1c3.1-8.8,7.8-14,16.6-18.6C7700.8,6506.9,7704.5,6505.3,7706.1,6504.9z"/>
	<path class="st0" d="M7898.2,6481.3c9.5-2.4,17.6-2.5,36.5-0.4c26.6,2.8,31.3,2.3,58.7-6.3c23.1-7.2,33.3-8.7,45.6-6.4
		c12.8,2.3,27,12.3,35.5,25c15.3,22.6,9.3,50.3-18.3,83.9c-11.9,14.6-25.6,28-50.8,50.1c-8.2,7.2-20.1,17.8-26.7,23.6
		c-7.6,6.8-12.1,10.4-12.5,10.2c-0.8-0.6-23.9,18.9-24.3,20.4c-0.2,1.2-10.8,9.1-21,16c-28.5,19-52.2,25.6-70.5,19.6
		c-9.5-3.1-16-8-23.6-17.8c-5.7-7.4-12.1-21-13.4-28.5c-2.8-15.9,0.9-29.1,15.3-54.1c10.9-19.3,15-29.7,15.8-40.8
		c0.2-2.1,0-8.8-0.4-14.9c-0.7-10.8-0.7-19.3,0-23.6c2.2-13.5,16.4-33.3,32.3-44.9C7882.6,6487.9,7892.9,6482.6,7898.2,6481.3z"/>
</g>
<g transform="translate(0.000000,768.000000) scale(0.100000,-0.100000)">
	<path class="st0" d="M6821.1,6149.8c25.1-12.4,62.5-3.5,89.8,21.4c3.9,3.6,5.7,5.7,10.3,12.4c5,7.3,5.8,8.7,8.1,14.9
		c6.5,17.7,8.7,38,6,55.6c-1.5,9.5-3.4,15.9-6.8,22.4c-6.8,13-18.2,21-32.4,22.5c-6.1,0.6-18.5-1.4-25.3-4.2
		c-18-7.3-36-22.1-51.1-41.9c-11.6-15.2-18.3-30.4-20.8-47.6c-2.8-18.3,0-34,7.8-44.1C6809.7,6157.4,6816.2,6152.3,6821.1,6149.8z"
		/>
	<path class="st0" d="M6723,6252.8c16.2-5.8,36.1-5.7,53.3,0.4c21.5,7.6,45,23.5,60.5,40.9c6.3,7.1,9.4,11.4,12.8,17.7
		c10,18.9,9.2,36.4-2.4,49.8c-3.1,3.7-11.5,9.7-16.7,12.1c-21.3,9.7-55,10.1-78,1c-28.7-11.4-52.7-44.2-55.3-75.8
		c-0.9-11,2.7-25.6,8.3-33.5C6708.4,6261.3,6717.5,6254.8,6723,6252.8z"/>
	<path class="st0" d="M6976.4,6182.5c7.1-3,14.7-3.7,24.6-2.2c39.3,5.9,85.7,41.5,93.6,71.9c1.4,5.6,1.5,10.9,0.4,18.5
		c-1.6,10.2-4.7,17.5-10.7,25.2c-3.6,4.7-14.8,12.3-21,14.5c-17.7,5.9-39.6,4-57.8-5.1c-30.1-15.1-49.6-48.4-48.5-82.5
		c0.4-11.7,3.9-24.6,8.3-31.1C6967.5,6188.6,6973.1,6183.9,6976.4,6182.5z"/>
	<path class="st0" d="M6777.8,6414.3c17.4-8,42.6-8,61.5,0c10,4.2,16.6,9.7,24.3,19.7c22,29,31.4,73,19.9,94.2
		c-2.6,4.7-3.2,5.5-7.4,8.7c-7.3,5.7-14.6,7.7-25.1,7.1c-9.7-0.7-20.2-4.1-31.8-10.4c-11.8-6.5-22.1-14.4-32.4-24.8
		c-6.4-6.5-17.9-22.4-21.8-30c-7.1-14.2-9.7-26.9-7.8-38.4c1.5-9.2,5.3-15.2,13.1-21.1C6772.9,6417.2,6776.3,6415,6777.8,6414.3z"/>
	<path class="st0" d="M6962.9,6357.9c9-4,16.9-5.5,35.9-6.8c26.7-1.8,31.2-3.1,56.8-16.4c21.5-11.1,31.3-14.3,43.8-14.2
		c13,0.1,28.7,7.4,39.3,18.4c19,19.6,17.8,48-3.5,85.8c-9.2,16.4-20.4,32.1-41.3,58.2c-6.8,8.5-16.8,21-22.2,27.8
		c-6.3,8-10.1,12.3-10.6,12.2c-0.9-0.4-20.3,22.7-20.4,24.3c0,1.2-9,10.9-17.9,19.4c-24.8,23.7-47,34.2-66,31.5
		c-9.9-1.4-17.2-5.1-26.3-13.5c-6.9-6.3-15.5-18.6-18.1-25.8c-5.5-15.2-4.1-28.8,5.7-56c7.4-20.9,9.6-31.9,8.5-42.9
		c-0.2-2.1-1.5-8.7-3-14.6c-2.5-10.5-4-18.9-4.1-23.2c-0.2-13.7,10.4-35.6,24.1-49.8C6948.7,6367,6958,6360.1,6962.9,6357.9z"/>
</g>
<g transform="translate(0.000000,768.000000) scale(0.100000,-0.100000)">
	<path class="st0" d="M7011.1,5351.5c25.4-11.7,62.6-1.7,89.1,24c3.8,3.7,5.6,5.9,10,12.7c4.8,7.4,5.5,8.9,7.7,15.1
		c6,17.9,7.6,38.2,4.4,55.7c-1.8,9.4-3.9,15.8-7.4,22.2c-7.1,12.8-18.8,20.4-33,21.5c-6.1,0.4-18.4-2-25.2-4.9
		c-17.7-7.8-35.3-23.1-49.9-43.3c-11.2-15.5-17.4-30.9-19.5-48.2c-2.2-18.4,1-34,9.1-43.9
		C6999.5,5358.8,7006.2,5353.8,7011.1,5351.5z"/>
	<path class="st0" d="M6910.1,5451.6c16.4-5.4,36.3-4.7,53.3,1.9c21.3,8.3,44.3,24.7,59.3,42.6c6.1,7.3,9.1,11.6,12.3,18
		c9.5,19.1,8.2,36.7-3.8,49.7c-3.3,3.6-11.8,9.4-17.1,11.6c-21.6,9.1-55.3,8.5-78-1.2c-28.4-12.2-51.4-45.7-53.1-77.4
		c-0.6-11,3.5-25.5,9.3-33.3C6895.3,5459.8,6904.5,5453.5,6910.1,5451.6z"/>
	<path class="st0" d="M7165.4,5388.7c7.1-2.8,14.8-3.3,24.7-1.5c39.1,7,84.5,44,91.5,74.6c1.3,5.7,1.2,11-0.1,18.5
		c-1.9,10.1-5.2,17.4-11.5,24.9c-3.8,4.6-15.1,11.9-21.4,13.8c-17.8,5.4-39.7,2.8-57.6-6.8c-29.6-16-48.2-49.8-46.1-83.9
		c0.8-11.7,4.6-24.5,9.2-30.9C7156.3,5394.4,7162,5390,7165.4,5388.7z"/>
	<path class="st0" d="M6960.3,5614.7c17.6-7.5,42.8-6.8,61.4,1.8c9.8,4.5,16.3,10.1,23.7,20.4c21.2,29.6,29.3,73.9,17.2,94.7
		c-2.7,4.6-3.4,5.4-7.6,8.4c-7.5,5.5-14.8,7.3-25.3,6.4c-9.7-0.9-20.1-4.7-31.5-11.4c-11.6-6.8-21.7-15-31.7-25.7
		c-6.2-6.7-17.3-22.9-20.9-30.7c-6.7-14.4-9-27.1-6.7-38.6c1.8-9.2,5.7-15,13.7-20.8C6955.3,5617.4,6958.8,5615.3,6960.3,5614.7z"/>
	<path class="st0" d="M7146.9,5563.6c9.1-3.7,17.1-5,36.1-5.7c26.7-1,31.3-2.2,57.2-14.8c21.8-10.5,31.7-13.4,44.2-13
		c13,0.5,28.5,8.2,38.8,19.6c18.4,20.1,16.5,48.5-6,85.7c-9.7,16.1-21.3,31.5-43,56.9c-7,8.3-17.3,20.5-23,27.2
		c-6.5,7.8-10.5,12-10.9,11.9c-0.9-0.4-20.9,22.1-21.1,23.7c-0.1,1.2-9.3,10.6-18.4,18.9c-25.5,22.9-48,32.9-66.9,29.6
		c-9.8-1.7-17-5.6-25.9-14.2c-6.7-6.5-15-19.1-17.3-26.3c-5.1-15.3-3.3-28.9,7.3-55.8c8-20.7,10.5-31.6,9.8-42.6
		c-0.1-2.1-1.3-8.7-2.6-14.7c-2.2-10.6-3.5-19-3.4-23.4c0.2-13.7,11.4-35.3,25.5-49.1C7132.4,5572.3,7141.9,5565.6,7146.9,5563.6z"
		/>
</g>
<g transform="translate(0.000000,768.000000) scale(0.100000,-0.100000)">
	<path class="st0" d="M6082.8,5437.4c24.3-14,62.2-7.3,90.9,15.9c4.1,3.3,6.1,5.4,11.1,11.7c5.5,7,6.3,8.3,9,14.4
		c7.6,17.3,11,37.4,9.4,55.1c-0.9,9.5-2.4,16.1-5.4,22.7c-5.9,13.4-16.9,22-30.9,24.4c-6,1-18.5-0.3-25.5-2.6
		c-18.4-6.2-37.3-19.8-53.6-38.7c-12.5-14.5-20.1-29.3-23.7-46.2c-3.9-18.1-2-33.9,5.1-44.5
		C6071.9,5445.7,6078.1,5440.1,6082.8,5437.4z"/>
	<path class="st0" d="M5991.2,5546.2c15.8-6.8,35.7-7.9,53.3-2.9c22,6.3,46.4,20.7,62.9,37.1c6.8,6.7,10.1,10.8,13.8,16.9
		c11.2,18.2,11.4,35.8,0.7,49.9c-2.9,3.9-10.9,10.4-15.9,13.1c-20.7,11-54.3,13.5-77.7,5.8c-29.4-9.6-55.3-40.9-59.9-72.3
		c-1.6-10.9,1.2-25.7,6.3-34C5977.2,5555.6,5985.8,5548.6,5991.2,5546.2z"/>
	<path class="st0" d="M6239.8,5460.5c6.9-3.4,14.5-4.6,24.4-3.7c39.6,3.4,88.1,36.2,97.9,66.1c1.8,5.5,2.2,10.8,1.5,18.5
		c-1,10.2-3.7,17.8-9.2,25.8c-3.3,4.9-14,13.2-20.1,15.7c-17.3,7-39.3,6.4-58-1.6c-31-13.3-52.5-45.3-53.4-79.4
		c-0.3-11.7,2.4-24.8,6.4-31.6C6231.3,5467.1,6236.6,5462.1,6239.8,5460.5z"/>
	<path class="st0" d="M6055.8,5704c16.8-9.1,42-10.6,61.3-3.8c10.2,3.6,17.2,8.6,25.5,18.2c23.8,27.6,35.8,71,25.6,92.8
		c-2.3,4.9-2.9,5.7-6.8,9.1c-7,6.2-14.1,8.6-24.7,8.6c-9.7-0.1-20.5-2.8-32.4-8.5c-12.2-5.8-23-13-33.9-22.7
		c-6.8-6.1-19.3-21.3-23.6-28.7c-8-13.8-11.4-26.2-10.2-37.8c1-9.3,4.3-15.5,11.8-21.9C6051.1,5707.2,6054.4,5704.8,6055.8,5704z"/>
	<path class="st0" d="M6237.1,5636.4c8.7-4.5,16.6-6.6,35.4-9c26.5-3.4,31-5,55.6-19.8c20.8-12.4,30.3-16.2,42.8-16.9
		c12.9-0.7,29.1,5.6,40.4,16c20.2,18.4,20.8,46.8,1.7,85.8c-8.2,16.9-18.4,33.3-37.7,60.6c-6.3,8.9-15.4,22-20.5,29.1
		c-5.8,8.3-9.4,12.9-9.8,12.8c-0.9-0.4-18.9,23.9-18.9,25.5c0,1.2-8.3,11.4-16.6,20.5c-23.3,25.1-44.8,37.1-64,35.5
		c-9.9-0.8-17.4-4.1-27.1-11.8c-7.2-5.9-16.7-17.7-19.6-24.6c-6.4-14.8-5.9-28.5,2.2-56.2c6.1-21.3,7.7-32.4,5.9-43.4
		c-0.3-2.1-2.1-8.6-3.9-14.4c-3.2-10.4-5.2-18.6-5.5-23c-1.1-13.7,8.2-36.2,21-51.2C6223.5,5646.3,6232.3,5638.9,6237.1,5636.4z"/>
</g>
</svg>
