<?xml version="1.0" encoding="utf-8"?>
<!-- Generator: Adobe Illustrator 24.0.0, SVG Export Plug-In . SVG Version: 6.00 Build 0)  -->
<svg version="1.1" id="Ebene_1" xmlns="http://www.w3.org/2000/svg" xmlns:xlink="http://www.w3.org/1999/xlink" x="0px" y="0px"
	 viewBox="0 0 1185 248" style="enable-background:new 0 0 1185 248;" xml:space="preserve">
<style type="text/css">
	.st0{fill:#FFFFFF;}
</style>
<path d="M50.5,199.8c112.4,0,87.5-49,188.7-59.3s146.7,38.3,219.5,38.3s107.9-21.9,210.8-69.3c102.8-47.3,274-8.7,424.8,69.3
	c37.7,19.5,68,36.7,90.7,51.5V0H0v193C15,197.2,31.6,199.8,50.5,199.8z"/>
<g transform="translate(0.000000,768.000000) scale(0.100000,-0.100000)">
	<path class="st0" d="M3775.8,7220.8c12.4,23.9,3.7,60.8-20.7,88.3c-3.5,4-5.6,5.8-12.2,10.5c-7.2,5.2-8.5,6-14.6,8.5
		c-17.4,7.1-37.4,10-54.8,8c-9.3-1.1-15.7-2.7-22.1-5.7c-12.9-6.1-20.8-16.9-22.3-30.6c-0.6-5.9,1.3-18.1,4-24.8
		c7.1-17.8,21.6-35.9,41.1-51.4c14.9-11.9,29.9-19,46.8-22.2c18-3.4,33.5-1.3,43.6,5.9C3768.3,7210,3773.4,7216.2,3775.8,7220.8z"/>
	<path class="st0" d="M3673.9,7129.3c5.8,15.6,5.8,35-0.2,52c-7.4,21.3-23,44.8-40.1,60.6c-7,6.5-11.2,9.6-17.4,13.1
		c-18.6,10.5-35.9,10.4-49.2-0.3c-3.7-2.9-9.6-10.8-12-15.8c-9.6-20.4-10.2-53.2-1.4-75.9c11.1-28.4,43.4-53.1,74.5-56.9
		c10.8-1.3,25.2,1.7,33.1,6.8C3665.3,7115.4,3671.8,7124,3673.9,7129.3z"/>
	<path class="st0" d="M3744.3,7373.5c3,6.8,3.7,14.2,2.3,23.9c-5.6,38.5-40.6,85.2-70.5,94.1c-5.6,1.6-10.8,1.9-18.3,1.1
		c-10-1.2-17.3-3.9-24.9-9.5c-4.7-3.4-12.2-13.9-14.4-19.9c-5.9-17-4.1-38.4,4.8-56.5c14.8-29.9,47.6-50.3,81.2-50.5
		c11.6,0,24.3,2.8,30.7,6.9C3738.3,7365.1,3742.9,7370.3,3744.3,7373.5z"/>
	<path class="st0" d="M3514.8,7189c8,16.6,8.1,41.2,0.3,59.9c-4.1,9.9-9.5,16.6-19.4,24.4c-28.5,22.6-71.9,33.4-92.8,23
		c-4.7-2.3-5.4-2.9-8.6-6.8c-5.7-6.9-7.7-13.9-7.1-24.2c0.6-9.5,3.9-19.9,10.2-31.4c6.4-11.7,14.1-22.1,24.3-32.6
		c6.4-6.5,22-18.4,29.5-22.4c14-7.5,26.5-10.6,37.8-9.1c9.1,1.1,15,4.5,20.9,12C3511.9,7184.4,3514.1,7187.6,3514.8,7189z"/>
	<path class="st0" d="M3571.2,7367.2c4,8.6,5.5,16.3,6.8,34.7c1.9,26,3.2,30.3,16.4,54.7c11.1,20.5,14.3,29.9,14.2,42.1
		c0,12.6-7.2,28.2-18,39.1c-19.2,19.3-47.2,19.3-84.6-0.1c-16.2-8.4-31.7-18.6-57.5-38c-8.4-6.3-20.8-15.5-27.6-20.6
		c-7.9-5.8-12.2-9.4-12.1-9.8c0.4-0.9-22.5-18.9-24.1-18.9c-1.2,0-10.8-8.4-19.2-16.7c-23.4-23.2-34-44.5-31.3-63.1
		c1.4-9.7,5-16.9,13.2-26.2c6.2-6.9,18.3-15.9,25.4-18.6c14.9-5.9,28.4-5.1,55.2,3.3c20.6,6.4,31.5,8.1,42.4,6.6
		c2.1-0.3,8.6-1.8,14.4-3.5c10.4-2.9,18.6-4.6,22.9-4.9c13.5-0.8,35.2,8.7,49.2,21.5C3562.2,7353.7,3569,7362.5,3571.2,7367.2z"/>
</g>
<g transform="translate(0.000000,768.000000) scale(0.100000,-0.100000)">
	<path class="st0" d="M3844.7,6272c12.4,23.9,3.7,60.8-20.7,88.3c-3.5,4-5.6,5.8-12.2,10.5c-7.2,5.2-8.5,6-14.6,8.5
		c-17.4,7.1-37.4,10-54.8,8.1c-9.3-1.1-15.7-2.7-22.1-5.7c-12.9-6.1-20.8-16.9-22.3-30.6c-0.6-5.9,1.3-18.1,4-24.8
		c7.1-17.8,21.6-35.9,41.1-51.4c14.9-11.9,29.9-19,46.8-22.2c18-3.4,33.5-1.3,43.6,5.9C3837.1,6261.2,3842.3,6267.3,3844.7,6272z"/>
	<path class="st0" d="M3742.7,6180.4c5.8,15.6,5.8,35-0.2,52c-7.4,21.3-23,44.8-40.1,60.6c-7,6.5-11.2,9.6-17.4,13.1
		c-18.6,10.5-35.9,10.4-49.2-0.3c-3.7-2.9-9.6-10.8-12-15.8c-9.6-20.4-10.2-53.2-1.4-75.9c11.1-28.4,43.4-53.1,74.5-56.9
		c10.8-1.3,25.2,1.7,33.1,6.8C3734.2,6166.5,3740.7,6175.1,3742.7,6180.4z"/>
	<path class="st0" d="M3813.1,6424.6c3,6.8,3.7,14.2,2.3,23.9c-5.6,38.5-40.6,85.2-70.5,94.1c-5.6,1.6-10.8,1.9-18.3,1.1
		c-10-1.2-17.3-3.9-24.9-9.5c-4.7-3.4-12.2-13.9-14.4-19.9c-5.9-17-4.1-38.4,4.8-56.5c14.8-29.9,47.6-50.3,81.2-50.5
		c11.6,0,24.3,2.8,30.7,6.9C3807.1,6416.2,3811.7,6421.4,3813.1,6424.6z"/>
	<path class="st0" d="M3583.6,6240.2c8,16.6,8.1,41.2,0.3,59.9c-4.1,9.9-9.5,16.6-19.4,24.4c-28.5,22.6-71.9,33.4-92.8,23
		c-4.7-2.3-5.4-2.9-8.6-6.8c-5.7-6.9-7.7-13.9-7.1-24.2c0.6-9.5,3.9-19.9,10.2-31.4c6.4-11.7,14.1-22.1,24.3-32.6
		c6.4-6.5,22-18.4,29.5-22.4c14-7.5,26.5-10.6,37.8-9.1c9.1,1.1,15,4.5,20.9,12C3580.7,6235.5,3583,6238.7,3583.6,6240.2z"/>
	<path class="st0" d="M3640.1,6418.3c4,8.6,5.5,16.3,6.8,34.7c1.9,26,3.2,30.3,16.4,54.7c11.1,20.5,14.3,29.9,14.2,42.1
		c0,12.6-7.2,28.2-18,39.1c-19.2,19.3-47.2,19.3-84.6-0.1c-16.2-8.4-31.7-18.6-57.5-38c-8.4-6.3-20.8-15.5-27.6-20.6
		c-7.9-5.8-12.2-9.4-12.1-9.8c0.4-0.9-22.5-18.9-24.1-18.9c-1.2,0-10.8-8.4-19.2-16.7c-23.4-23.2-34-44.5-31.3-63.1
		c1.4-9.7,5-16.9,13.2-26.2c6.2-6.9,18.3-15.9,25.4-18.6c14.9-5.9,28.4-5.1,55.2,3.3c20.6,6.4,31.5,8.1,42.4,6.6
		c2.1-0.3,8.6-1.8,14.4-3.5c10.4-2.9,18.6-4.6,22.9-4.9c13.5-0.8,35.2,8.7,49.2,21.5C3631,6404.9,3637.9,6413.6,3640.1,6418.3z"/>
</g>
<g transform="translate(0.000000,768.000000) scale(0.100000,-0.100000)">
	<path class="st0" d="M4865.5,6331.9c12.4,23.9,3.7,60.8-20.7,88.3c-3.5,4-5.6,5.8-12.2,10.5c-7.2,5.2-8.5,6-14.6,8.5
		c-17.4,7.1-37.4,10-54.8,8.1c-9.3-1.1-15.7-2.7-22.1-5.7c-12.9-6.1-20.8-16.9-22.3-30.6c-0.6-5.9,1.3-18.1,4-24.8
		c7.1-17.8,21.6-35.9,41.1-51.4c14.9-11.9,29.9-19,46.8-22.2c18-3.4,33.5-1.3,43.6,5.9C4858,6321.1,4863.1,6327.2,4865.5,6331.9z"/>
	<path class="st0" d="M4763.6,6240.3c5.8,15.6,5.8,35-0.2,52c-7.4,21.3-23,44.8-40.1,60.6c-7,6.5-11.2,9.6-17.4,13.1
		c-18.6,10.5-35.9,10.4-49.2-0.3c-3.7-2.9-9.6-10.8-12-15.8c-9.6-20.4-10.2-53.2-1.4-75.9c11.1-28.4,43.4-53.1,74.5-56.9
		c10.8-1.3,25.2,1.7,33.1,6.8C4755,6226.5,4761.5,6235.1,4763.6,6240.3z"/>
	<path class="st0" d="M4834,6484.5c3,6.8,3.7,14.2,2.3,23.9c-5.6,38.5-40.6,85.2-70.5,94.1c-5.6,1.6-10.8,1.9-18.3,1.1
		c-10-1.2-17.3-3.9-24.9-9.5c-4.7-3.4-12.2-13.9-14.4-19.9c-5.9-17-4.1-38.4,4.8-56.5c14.8-29.9,47.6-50.3,81.2-50.5
		c11.6,0,24.3,2.8,30.7,6.9C4828,6476.1,4832.6,6481.3,4834,6484.5z"/>
	<path class="st0" d="M4604.5,6300.1c8,16.6,8.1,41.2,0.3,59.9c-4.1,9.9-9.5,16.6-19.4,24.4c-28.5,22.6-71.9,33.4-92.8,23
		c-4.7-2.3-5.4-2.9-8.6-6.8c-5.7-6.9-7.7-13.9-7.1-24.2c0.6-9.5,3.9-19.9,10.2-31.4c6.4-11.7,14.1-22.1,24.3-32.6
		c6.4-6.5,22-18.4,29.5-22.4c14-7.5,26.5-10.6,37.8-9.1c9.1,1.1,15,4.5,20.9,12C4601.6,6295.4,4603.8,6298.7,4604.5,6300.1z"/>
	<path class="st0" d="M4660.9,6478.3c4,8.6,5.5,16.3,6.8,34.7c1.9,26,3.2,30.3,16.4,54.7c11.1,20.5,14.3,29.9,14.2,42.1
		c0,12.6-7.2,28.2-18,39.1c-19.2,19.3-47.2,19.3-84.6-0.1c-16.2-8.4-31.7-18.6-57.5-38c-8.4-6.3-20.8-15.5-27.6-20.6
		c-7.9-5.8-12.2-9.4-12.1-9.8c0.4-0.9-22.5-18.9-24.1-18.9c-1.2,0-10.8-8.4-19.2-16.7c-23.4-23.2-34-44.5-31.3-63.1
		c1.4-9.7,5-16.9,13.2-26.2c6.2-6.9,18.3-15.9,25.4-18.6c14.9-5.9,28.4-5.1,55.2,3.3c20.6,6.4,31.5,8.1,42.4,6.6
		c2.1-0.3,8.6-1.8,14.4-3.5c10.4-2.9,18.6-4.6,22.9-4.9c13.5-0.8,35.2,8.7,49.2,21.5C4651.9,6464.8,4658.7,6473.5,4660.9,6478.3z"/>
</g>
<g transform="translate(0.000000,768.000000) scale(0.100000,-0.100000)">
	<path d="M4902.4,5385c12.4,23.9,3.7,60.8-20.7,88.3c-3.5,4-5.6,5.8-12.2,10.5c-7.2,5.2-8.5,6-14.6,8.5c-17.4,7.1-37.4,10-54.8,8.1
		c-9.3-1.1-15.7-2.7-22.1-5.7c-12.9-6.1-20.8-16.9-22.3-30.6c-0.6-5.9,1.3-18.1,4-24.8c7.1-17.8,21.6-35.9,41.1-51.4
		c14.9-11.9,29.9-19,46.8-22.2c18-3.4,33.5-1.3,43.6,5.9C4894.8,5374.2,4900,5380.3,4902.4,5385z"/>
	<path d="M4800.4,5293.4c5.8,15.6,5.8,35-0.2,52c-7.4,21.3-23,44.8-40.1,60.6c-7,6.5-11.2,9.6-17.4,13.1
		c-18.6,10.5-35.9,10.4-49.2-0.3c-3.7-2.9-9.6-10.8-12-15.8c-9.6-20.4-10.2-53.2-1.4-75.9c11.1-28.4,43.4-53.1,74.5-56.9
		c10.8-1.3,25.2,1.7,33.1,6.8C4791.9,5279.5,4798.4,5288.1,4800.4,5293.4z"/>
	<path d="M4870.8,5537.6c3,6.8,3.7,14.2,2.3,23.9c-5.6,38.5-40.6,85.2-70.5,94.1c-5.6,1.6-10.8,1.9-18.3,1.1
		c-10-1.2-17.3-3.9-24.9-9.5c-4.7-3.4-12.2-13.9-14.4-19.9c-5.9-17-4.1-38.4,4.8-56.5c14.8-29.9,47.6-50.3,81.2-50.5
		c11.6,0,24.3,2.8,30.7,6.9C4864.8,5529.2,4869.4,5534.4,4870.8,5537.6z"/>
	<path d="M4641.3,5353.2c8,16.6,8.1,41.2,0.3,59.9c-4.1,9.9-9.5,16.6-19.4,24.4c-28.5,22.6-71.9,33.4-92.8,23
		c-4.7-2.3-5.4-2.9-8.6-6.8c-5.7-6.9-7.7-13.9-7.1-24.2c0.6-9.5,3.9-19.9,10.2-31.4c6.4-11.7,14.1-22.1,24.3-32.6
		c6.4-6.5,22-18.4,29.5-22.4c14-7.5,26.5-10.6,37.8-9.1c9.1,1.1,15,4.5,20.9,12C4638.4,5348.5,4640.7,5351.8,4641.3,5353.2z"/>
	<path d="M4697.8,5531.3c4,8.6,5.5,16.3,6.8,34.7c1.9,26,3.2,30.3,16.4,54.7c11.1,20.5,14.3,29.9,14.2,42.1c0,12.6-7.2,28.2-18,39.1
		c-19.2,19.3-47.2,19.3-84.6-0.1c-16.2-8.4-31.7-18.6-57.5-38c-8.4-6.3-20.8-15.5-27.6-20.6c-7.9-5.8-12.2-9.4-12.1-9.8
		c0.4-0.9-22.5-18.9-24.1-18.9c-1.2,0-10.8-8.4-19.2-16.7c-23.4-23.2-34-44.5-31.3-63.1c1.4-9.7,5-16.9,13.2-26.2
		c6.2-6.9,18.3-15.9,25.4-18.6c14.9-5.9,28.4-5.1,55.2,3.3c20.6,6.4,31.5,8.1,42.4,6.6c2.1-0.3,8.6-1.8,14.4-3.5
		c10.4-2.9,18.6-4.6,22.9-4.9c13.5-0.8,35.2,8.7,49.2,21.5C4688.7,5517.9,4695.6,5526.6,4697.8,5531.3z"/>
</g>
</svg>
